<svg width="329" height="107" viewBox="0 0 329 107" fill="none" xmlns="http://www.w3.org/2000/svg">
<g clip-path="url(#clip0_41_384)">
<path d="M240.407 51.3623C239.855 50.2139 239.254 48.9046 238.692 47.562C238.451 47.0305 238.347 46.4468 238.388 45.8643C238.41 45.3398 238.576 44.8315 238.868 44.3965C239.16 43.9615 239.567 43.6168 240.043 43.4011C241.005 42.9846 242.055 42.8149 243.098 42.9073C244.395 42.9188 245.689 43.0601 246.958 43.329C247.934 43.5027 248.852 43.9142 249.633 44.5273C249.998 44.8402 250.283 45.2356 250.466 45.6812C250.649 46.1268 250.725 46.6098 250.686 47.0904C250.612 48.1709 250.303 49.2219 249.782 50.1695C248.941 51.8021 247.861 53.2983 246.578 54.6078C246.221 54.934 245.792 55.1698 245.326 55.2957C245.08 55.3948 244.825 55.4691 244.565 55.5177C244.105 55.5795 243.637 55.5158 243.21 55.3333C242.783 55.1508 242.413 54.8561 242.138 54.4802C241.403 53.5384 240.818 52.4863 240.407 51.3623Z" fill="#588EF9"/>
<path d="M254.056 45.4316C255.169 44.8842 256.43 44.7204 257.646 44.9656C258.104 45.0239 258.526 45.2491 258.831 45.5987C259.135 45.9482 259.302 46.398 259.3 46.863C259.305 47.1545 259.244 47.4432 259.122 47.7075C258.999 47.9718 258.819 48.2047 258.594 48.3886C257.638 49.2095 256.416 49.6495 255.159 49.6258C254.524 49.6274 253.894 49.5128 253.3 49.2874C253.053 49.2068 252.835 49.055 252.673 48.8508C252.512 48.6466 252.413 48.3991 252.39 48.139C252.316 47.7487 252.345 47.3458 252.474 46.9701C252.602 46.5945 252.826 46.2592 253.124 45.9975C253.4 45.7573 253.715 45.566 254.056 45.4316Z" fill="#588EF9"/>
<path d="M251.701 39.1681C252.31 38.8527 253.003 38.74 253.681 38.8463C253.996 38.9075 254.293 39.0434 254.547 39.2428C254.8 39.4422 255.003 39.6994 255.138 39.9931C255.273 40.2868 255.337 40.6086 255.324 40.9321C255.312 41.2555 255.223 41.5712 255.065 41.8532C254.621 42.5761 254.007 43.1782 253.278 43.6064C252.683 43.9909 251.999 44.2109 251.293 44.2443C251.055 44.2765 250.813 44.2524 250.586 44.174C250.359 44.0956 250.153 43.965 249.985 43.7927C249.817 43.6204 249.691 43.4111 249.618 43.1813C249.544 42.9515 249.525 42.7076 249.561 42.469C249.561 42.2637 249.517 42.0474 249.561 41.8421C249.613 41.421 249.751 41.0152 249.966 40.6504C250.182 40.2856 250.47 39.9698 250.813 39.7228C251.081 39.4968 251.38 39.3101 251.701 39.1681Z" fill="#588EF9"/>
<path d="M246.738 41.8921C246.444 42.0321 246.132 42.1275 245.811 42.175C245.657 42.2055 245.497 42.2035 245.344 42.1691C245.19 42.1348 245.045 42.0688 244.918 41.9753C244.536 41.724 244.204 41.4021 243.942 41.0266C243.713 40.6434 243.624 40.1926 243.688 39.7506C243.734 39.3063 243.902 38.8836 244.173 38.53C244.422 38.1532 244.747 37.8334 245.127 37.5916C245.508 37.3497 245.934 37.1912 246.379 37.1264C246.797 37.0252 247.236 37.0605 247.633 37.227C248.029 37.3936 248.363 37.6829 248.585 38.0529C248.801 38.3965 248.916 38.7947 248.916 39.2013C248.916 39.6079 248.801 40.0062 248.585 40.3497C248.168 41.0661 247.514 41.6122 246.738 41.8921Z" fill="#588EF9"/>
<path d="M255.181 54.5468C255.416 54.4339 255.622 54.2664 255.781 54.0581C255.94 53.8499 256.048 53.6067 256.096 53.3484C256.153 53.0332 256.123 52.7082 256.009 52.4089C255.895 52.1096 255.702 51.8474 255.451 51.6508C255.24 51.4275 254.967 51.2745 254.668 51.2125C254.334 51.0115 253.954 50.9007 253.565 50.8907C253.317 50.8157 253.052 50.8157 252.804 50.8907C252.518 50.8877 252.234 50.927 251.96 51.0072L251.872 51.0349C251.681 51.034 251.492 51.0788 251.321 51.1656C251.151 51.2525 251.003 51.3788 250.89 51.5343C250.813 51.6286 250.659 51.7007 250.703 51.8727C250.666 51.9126 250.64 51.9605 250.626 52.0125C250.611 52.0646 250.609 52.1193 250.62 52.1722C250.559 52.2111 250.565 52.2777 250.559 52.3443C250.531 52.7631 250.661 53.1773 250.923 53.5038C251.087 53.7884 251.323 54.0239 251.607 54.1861H251.668L251.734 54.225L251.784 54.2971C251.793 54.3177 251.806 54.3365 251.822 54.3526C252.314 54.6841 252.884 54.8769 253.475 54.9111C254.066 54.9452 254.655 54.8194 255.181 54.5468Z" fill="#588EF9"/>
<path d="M250.019 70.7299C250.388 71.9394 250.796 73.3374 251.271 74.7133C251.444 75.2705 251.755 75.7744 252.175 76.1779C252.541 76.5549 253.005 76.8208 253.514 76.9453C254.023 77.0699 254.556 77.0482 255.054 76.8825C256.044 76.5504 256.937 75.9789 257.657 75.2182C258.609 74.3398 259.472 73.3678 260.232 72.3166C260.846 71.5329 261.257 70.6084 261.429 69.6259C261.494 69.1485 261.445 68.6624 261.285 68.2079C261.126 67.7534 260.861 67.3437 260.513 67.0128C259.739 66.2647 258.811 65.6966 257.794 65.3485C256.082 64.6924 254.28 64.3015 252.451 64.189C251.968 64.1818 251.491 64.2942 251.061 64.5163C250.813 64.6071 250.575 64.7224 250.35 64.8603C249.969 65.1262 249.666 65.4896 249.472 65.913C249.278 66.3364 249.2 66.8042 249.247 67.268C249.328 68.4547 249.589 69.6219 250.019 70.7299Z" fill="#588EF9"/>
<path d="M264.12 65.9699C265.311 65.6267 266.357 64.8997 267.098 63.9005C267.397 63.5489 267.559 63.0994 267.551 62.6365C267.544 62.1736 267.369 61.7293 267.059 61.3873C266.869 61.1662 266.631 60.9917 266.363 60.8773C266.095 60.7629 265.805 60.7115 265.515 60.7271C264.259 60.759 263.059 61.2524 262.14 62.1141C261.667 62.5398 261.277 63.0494 260.987 63.6175C260.856 63.8428 260.794 64.1025 260.81 64.3634C260.825 64.6243 260.918 64.8745 261.076 65.0822C261.276 65.4251 261.564 65.7084 261.909 65.9033C262.253 66.0982 262.643 66.1977 263.039 66.1917C263.409 66.1804 263.775 66.1054 264.12 65.9699Z" fill="#588EF9"/>
<path d="M266.524 72.2113C267.179 72.0273 267.758 71.6387 268.179 71.1017C268.373 70.8443 268.504 70.544 268.561 70.2257C268.618 69.9074 268.598 69.5801 268.505 69.2708C268.411 68.9614 268.245 68.6789 268.022 68.4465C267.799 68.2141 267.523 68.0383 267.219 67.9338C266.409 67.6931 265.553 67.6587 264.726 67.834C264.026 67.9442 263.367 68.2411 262.818 68.6939C262.621 68.8309 262.458 69.0121 262.343 69.2232C262.227 69.4343 262.161 69.6695 262.151 69.9104C262.141 70.1512 262.186 70.3912 262.284 70.6114C262.382 70.8316 262.529 71.026 262.714 71.1793C262.868 71.3125 262.962 71.5178 263.116 71.6509C263.434 71.9319 263.807 72.1431 264.21 72.2711C264.614 72.3991 265.039 72.4411 265.46 72.3943C265.822 72.3845 266.18 72.3229 266.524 72.2113Z" fill="#588EF9"/>
<path d="M261.026 73.5206C260.715 73.6135 260.42 73.7518 260.149 73.9311C260.011 74.0105 259.89 74.1181 259.795 74.2471C259.7 74.376 259.633 74.5235 259.598 74.68C259.481 75.1249 259.449 75.588 259.504 76.0448C259.589 76.4786 259.818 76.8701 260.155 77.1544C260.485 77.4549 260.892 77.6567 261.329 77.7369C261.766 77.8499 262.222 77.8689 262.667 77.7924C263.112 77.7159 263.535 77.5457 263.91 77.2931C264.284 77.0866 264.583 76.7669 264.765 76.3794C264.947 75.9918 265.003 75.5564 264.925 75.135C264.858 74.7331 264.679 74.3586 264.408 74.0551C264.138 73.7517 263.787 73.5317 263.397 73.4207C262.62 73.1753 261.781 73.2106 261.026 73.5206Z" fill="#588EF9"/>
<path d="M258.919 58.4303C259.17 58.3558 259.435 58.3421 259.692 58.3903C259.948 58.4385 260.19 58.5473 260.397 58.7077C260.649 58.9043 260.842 59.1665 260.956 59.4658C261.07 59.7651 261.1 60.09 261.043 60.4053C261.036 60.712 260.933 61.0088 260.75 61.2542C260.637 61.6205 260.434 61.9523 260.16 62.2195C260.039 62.4583 259.846 62.6525 259.609 62.7743C259.398 62.9693 259.161 63.1319 258.903 63.2569L258.82 63.2958C258.678 63.4252 258.508 63.5184 258.322 63.5677C258.137 63.6169 257.943 63.6207 257.756 63.5787C257.64 63.5787 257.475 63.6175 257.392 63.4567C257.339 63.4516 257.287 63.4339 257.242 63.405C257.197 63.376 257.16 63.3367 257.133 63.2902C257.061 63.2902 257.017 63.2458 256.973 63.207C256.672 62.9143 256.493 62.5178 256.471 62.0974C256.406 61.7781 256.425 61.4474 256.526 61.1376V61.0933V61.0322V60.9657V60.8769C256.521 60.855 256.521 60.8322 256.526 60.8103C256.677 60.2345 256.979 59.71 257.4 59.2913C257.821 58.8727 258.345 58.5754 258.919 58.4303Z" fill="#588EF9"/>
<path d="M102.584 41.2818C102.584 40.0169 102.584 38.5633 102.667 37.1098C102.676 36.5249 102.834 35.9521 103.124 35.4454C103.371 34.9796 103.742 34.5927 104.197 34.3288C104.651 34.065 105.17 33.9348 105.694 33.953C106.739 33.9992 107.757 34.3 108.661 34.8296C109.818 35.4064 110.917 36.0938 111.942 36.8823C112.743 37.459 113.395 38.2198 113.845 39.1015C114.038 39.5431 114.126 40.0244 114.1 40.5063C114.074 40.9883 113.936 41.4573 113.696 41.8754C113.161 42.8154 112.431 43.629 111.556 44.261C110.095 45.3697 108.478 46.2541 106.759 46.8852C106.295 47.024 105.806 47.0506 105.33 46.9628C105.065 46.9457 104.803 46.901 104.547 46.8297C104.105 46.6866 103.71 46.4259 103.403 46.0753C103.096 45.7247 102.89 45.2972 102.804 44.838C102.548 43.6713 102.474 42.4715 102.584 41.2818Z" fill="#A7C2F9"/>
<path d="M117.441 41.8588C118.677 41.8432 119.885 42.2326 120.882 42.9684C121.267 43.2216 121.548 43.6075 121.67 44.0539C121.793 44.5002 121.75 44.9762 121.549 45.3928C121.428 45.6589 121.248 45.8939 121.024 46.0803C120.799 46.2667 120.536 46.3996 120.253 46.4691C119.038 46.7913 117.748 46.6572 116.624 46.0918C116.053 45.8178 115.535 45.4419 115.097 44.9823C114.907 44.8035 114.774 44.572 114.715 44.3172C114.656 44.0623 114.674 43.7956 114.766 43.5509C114.866 43.1666 115.065 42.8155 115.343 42.5331C115.621 42.2507 115.968 42.0469 116.349 41.942C116.705 41.848 117.075 41.8198 117.441 41.8588Z" fill="#A7C2F9"/>
<path d="M118.003 35.1847C118.687 35.1615 119.36 35.3556 119.928 35.7394C120.189 35.9317 120.401 36.1842 120.546 36.4757C120.691 36.7672 120.764 37.0894 120.76 37.4153C120.756 37.7412 120.674 38.0613 120.521 38.3488C120.369 38.6364 120.15 38.883 119.883 39.0682C119.173 39.5252 118.363 39.8013 117.523 39.8726C116.821 39.958 116.108 39.8586 115.455 39.5842C115.228 39.5088 115.021 39.3813 114.851 39.212C114.68 39.0426 114.552 38.8359 114.474 38.608C114.397 38.3801 114.373 38.1372 114.404 37.8985C114.436 37.6597 114.522 37.4315 114.656 37.2318C114.766 37.0543 114.799 36.8324 114.909 36.677C115.136 36.3187 115.435 36.0119 115.786 35.7759C116.138 35.54 116.534 35.3802 116.95 35.3067C117.294 35.2171 117.648 35.176 118.003 35.1847Z" fill="#A7C2F9"/>
<path d="M112.362 35.4898C112.036 35.4884 111.713 35.4379 111.402 35.34C111.25 35.3023 111.108 35.2335 110.984 35.1381C110.859 35.0427 110.756 34.9226 110.68 34.7853C110.444 34.392 110.285 33.957 110.211 33.5037C110.163 33.0596 110.275 32.613 110.525 32.2443C110.755 31.8633 111.088 31.5556 111.485 31.3567C111.873 31.1242 112.305 30.9764 112.753 30.9229C113.202 30.8693 113.656 30.9113 114.088 31.046C114.504 31.1394 114.88 31.3622 115.163 31.6828C115.446 32.0035 115.622 32.4057 115.665 32.8324C115.712 33.2367 115.644 33.646 115.469 34.0132C115.294 34.3803 115.02 34.6903 114.678 34.9073C113.997 35.3675 113.177 35.5737 112.362 35.4898Z" fill="#A7C2F9"/>
<path d="M114.545 50.5634C114.806 50.5641 115.064 50.5026 115.297 50.384C115.53 50.2654 115.731 50.0931 115.885 49.881C116.072 49.6208 116.184 49.314 116.209 48.9941C116.235 48.6742 116.172 48.3535 116.029 48.0669C115.941 47.779 115.771 47.5239 115.538 47.3345C115.33 47.0151 115.043 46.7552 114.705 46.58C114.521 46.3934 114.284 46.2676 114.027 46.2194C113.772 46.0908 113.498 46.0029 113.216 45.9587H113.128C112.957 45.871 112.768 45.8253 112.577 45.8253C112.385 45.8253 112.196 45.871 112.025 45.9587C111.92 46.0086 111.744 46.0086 111.716 46.1806C111.668 46.1996 111.624 46.2302 111.589 46.2698C111.555 46.3094 111.53 46.3569 111.518 46.408C111.441 46.408 111.419 46.4857 111.385 46.5356C111.178 46.9024 111.117 47.3347 111.214 47.7451C111.242 48.0717 111.354 48.3854 111.54 48.6549V48.6938L111.584 48.7492L111.628 48.8047V48.8935C111.628 48.8935 111.628 48.9434 111.628 48.9601C111.93 49.4625 112.36 49.8754 112.872 50.157C113.384 50.4386 113.962 50.5788 114.545 50.5634Z" fill="#A7C2F9"/>
<path d="M102.942 62.9241C102.755 64.1779 102.523 65.6148 102.391 67.0573C102.307 67.6368 102.37 68.2283 102.573 68.7771C102.743 69.2759 103.049 69.7168 103.455 70.0501C103.862 70.3835 104.353 70.5959 104.873 70.6634C105.913 70.7912 106.968 70.6578 107.944 70.275C109.178 69.8963 110.372 69.3945 111.507 68.7771C112.395 68.337 113.162 67.6834 113.74 66.8742C114.007 66.4697 114.174 66.0065 114.225 65.5238C114.277 65.041 114.213 64.5528 114.038 64.1002C113.662 63.0839 113.071 62.162 112.306 61.3984C111.042 60.0665 109.587 58.9332 107.988 58.0364C107.555 57.8219 107.076 57.7154 106.593 57.7257C106.329 57.698 106.063 57.698 105.799 57.7257C105.342 57.7946 104.912 57.9852 104.553 58.2779C104.194 58.5706 103.92 58.9546 103.759 59.3901C103.303 60.5174 103.028 61.7102 102.942 62.9241Z" fill="#A7C2F9"/>
<path d="M117.7 64.7549C118.921 64.9686 120.178 64.7737 121.279 64.2001C121.7 64.0128 122.038 63.6769 122.23 63.2559C122.422 62.8348 122.455 62.3577 122.321 61.9144C122.244 61.6336 122.104 61.3741 121.913 61.1551C121.722 60.936 121.485 60.7632 121.218 60.6494C120.071 60.1358 118.778 60.0589 117.578 60.4331C116.969 60.6135 116.398 60.903 115.891 61.2875C115.677 61.4347 115.51 61.642 115.412 61.8837C115.314 62.1254 115.289 62.3907 115.339 62.6467C115.378 63.0427 115.518 63.4217 115.748 63.7459C115.977 64.0701 116.287 64.3281 116.646 64.4941C116.979 64.6443 117.336 64.7327 117.7 64.7549Z" fill="#A7C2F9"/>
<path d="M117.192 71.4345C117.864 71.561 118.559 71.4718 119.178 71.1793C119.463 71.0301 119.709 70.8151 119.896 70.5518C120.082 70.2884 120.204 69.9844 120.252 69.6645C120.299 69.3446 120.27 69.0179 120.168 68.7113C120.066 68.4047 119.893 68.1269 119.663 67.9005C119.035 67.3317 118.277 66.9277 117.457 66.7244C116.777 66.5249 116.056 66.5077 115.367 66.6744C115.127 66.7106 114.899 66.8032 114.701 66.9447C114.503 67.0861 114.341 67.2725 114.229 67.4886C114.116 67.7048 114.055 67.9446 114.052 68.1887C114.048 68.4328 114.102 68.6743 114.209 68.8936C114.286 69.0822 114.281 69.3097 114.369 69.4983C114.537 69.8851 114.784 70.2326 115.092 70.519C115.4 70.8054 115.764 71.0246 116.161 71.1627C116.491 71.3009 116.838 71.3923 117.192 71.4345Z" fill="#A7C2F9"/>
<path d="M111.678 70.2251C111.356 70.1747 111.029 70.1747 110.707 70.2251C110.55 70.2396 110.397 70.2865 110.259 70.3629C110.12 70.4392 109.999 70.5434 109.902 70.6689C109.608 71.0196 109.382 71.4222 109.235 71.8562C109.118 72.2866 109.157 72.7448 109.345 73.1488C109.511 73.5642 109.79 73.9239 110.15 74.1863C110.496 74.479 110.899 74.6946 111.333 74.8189C111.768 74.9432 112.223 74.9734 112.67 74.9075C113.096 74.8834 113.504 74.7244 113.835 74.4534C114.165 74.1824 114.402 73.8132 114.512 73.3985C114.627 73.0057 114.628 72.5881 114.514 72.195C114.401 71.8018 114.178 71.4494 113.873 71.1793C113.275 70.612 112.498 70.2743 111.678 70.2251Z" fill="#A7C2F9"/>
<path d="M116.227 55.6952C116.486 55.7357 116.731 55.8373 116.943 55.9916C117.155 56.1459 117.327 56.3485 117.446 56.5828C117.589 56.87 117.65 57.191 117.624 57.5109C117.598 57.8308 117.485 58.1373 117.297 58.397C117.159 58.6723 116.94 58.8973 116.668 59.0405C116.409 59.3186 116.085 59.5282 115.725 59.6508C115.515 59.8045 115.263 59.8896 115.003 59.8949C114.732 59.981 114.449 60.0258 114.165 60.0281H114.077C113.89 60.0871 113.692 60.0993 113.5 60.0635C113.307 60.0277 113.127 59.9451 112.974 59.8228C112.874 59.7562 112.703 59.7341 112.703 59.5565C112.658 59.5291 112.62 59.4911 112.592 59.4457C112.564 59.4004 112.547 59.3489 112.543 59.2958C112.472 59.2958 112.455 59.207 112.433 59.1515C112.28 58.7593 112.28 58.3231 112.433 57.931C112.51 57.6134 112.67 57.3223 112.896 57.0877V57.0433L112.952 56.9989L113.007 56.949V56.8658C113.003 56.8437 113.003 56.8213 113.007 56.7992C113.394 56.339 113.898 55.9933 114.465 55.7988C115.032 55.6044 115.641 55.5686 116.227 55.6952Z" fill="#A7C2F9"/>
<path d="M68.5308 42.8296C68.3985 41.5703 68.2275 40.1278 68.1283 38.6743C68.0703 38.0936 68.1595 37.5077 68.3874 36.9711C68.5787 36.48 68.9026 36.0526 69.3226 35.7369C69.7426 35.4213 70.242 35.23 70.7643 35.1846C71.8079 35.1053 72.855 35.2844 73.8139 35.7061C75.0304 36.1451 76.2013 36.7026 77.3101 37.3705C78.1781 37.8525 78.9163 38.5399 79.4609 39.3733C79.7061 39.7889 79.8495 40.2572 79.8793 40.7395C79.909 41.2219 79.8241 41.7044 79.6318 42.1473C79.2128 43.145 78.5824 44.0387 77.7845 44.7658C76.4642 46.0415 74.9601 47.1095 73.323 47.9337C72.8817 48.1315 72.3988 48.2172 71.9168 48.1833C71.6533 48.1924 71.3895 48.1794 71.1282 48.1445C70.6724 48.0538 70.2495 47.8409 69.904 47.5285C69.5584 47.216 69.303 46.8155 69.1649 46.3692C68.7684 45.2306 68.5544 44.0358 68.5308 42.8296Z" fill="#C2D6FF"/>
<path d="M83.3487 41.659C84.5798 41.5001 85.8287 41.7556 86.9003 42.3858C87.3132 42.5913 87.6371 42.9418 87.8108 43.371C87.9845 43.8003 87.9961 44.2787 87.8433 44.7159C87.7526 44.9935 87.601 45.2468 87.3995 45.4572C87.198 45.6676 86.9519 45.8295 86.6796 45.9309C85.5111 46.3935 84.2151 46.4113 83.0345 45.9808C82.4311 45.777 81.8702 45.463 81.3801 45.0543C81.1728 44.8977 81.0158 44.6833 80.9285 44.4378C80.8413 44.1922 80.8276 43.9262 80.8892 43.6729C80.9442 43.2793 81.101 42.907 81.3439 42.5935C81.5868 42.28 81.9074 42.0362 82.2734 41.8865C82.6159 41.7481 82.9798 41.6711 83.3487 41.659Z" fill="#C2D6FF"/>
<path d="M83.1393 34.9628C83.817 34.8633 84.5086 34.9838 85.1135 35.3067C85.3927 35.4676 85.6297 35.6929 85.8053 35.964C85.9809 36.2352 86.0899 36.5445 86.1233 36.8664C86.1567 37.1882 86.1135 37.5135 85.9974 37.8153C85.8813 38.1171 85.6955 38.3868 85.4554 38.6022C84.8047 39.1415 84.032 39.5112 83.2055 39.6785C82.5173 39.8488 81.7969 39.8354 81.1154 39.6396C80.8842 39.5901 80.6673 39.4879 80.4814 39.3411C80.2955 39.1942 80.1455 39.0065 80.0428 38.7924C79.9401 38.5782 79.8874 38.3432 79.8889 38.1055C79.8903 37.8677 79.9457 37.6334 80.051 37.4205C80.1392 37.2318 80.1448 37.0044 80.2385 36.8213C80.4218 36.4393 80.6822 36.0999 81.0031 35.8247C81.3241 35.5496 81.6985 35.3449 82.1026 35.2235C82.4342 35.0879 82.7832 35.0002 83.1393 34.9628Z" fill="#C2D6FF"/>
<path d="M77.5639 35.9281C77.2424 35.966 76.917 35.9548 76.5988 35.8948C76.4427 35.8736 76.2928 35.8203 76.158 35.7382C76.0233 35.6561 75.9068 35.547 75.8158 35.4177C75.5338 35.0546 75.3242 34.6402 75.1982 34.1971C75.1027 33.7618 75.1611 33.3066 75.3635 32.91C75.5494 32.5029 75.8457 32.1567 76.2183 31.9114C76.5758 31.636 76.987 31.4393 77.425 31.3341C77.863 31.229 78.3181 31.2178 78.7607 31.3011C79.1845 31.3453 79.5839 31.5221 79.9025 31.8068C80.2211 32.0915 80.4428 32.4696 80.5364 32.8879C80.6312 33.2844 80.612 33.6998 80.4812 34.0858C80.3504 34.4718 80.1132 34.8125 79.7974 35.0682C79.1768 35.6104 78.3858 35.9149 77.5639 35.9281Z" fill="#C2D6FF"/>
<path d="M81.4848 50.6633C81.7447 50.6363 81.9942 50.5465 82.2121 50.4016C82.4301 50.2567 82.6101 50.061 82.7367 49.8311C82.8929 49.5509 82.9694 49.2329 82.9577 48.9119C82.946 48.5909 82.8466 48.2793 82.6704 48.0114C82.5447 47.7313 82.3344 47.4983 82.0694 47.3456C81.8255 47.0516 81.5101 46.8261 81.1539 46.691C80.9512 46.5263 80.7026 46.4293 80.4426 46.4136C80.1729 46.3168 79.8904 46.2607 79.6044 46.2471H79.516C79.3334 46.1816 79.1376 46.1615 78.9456 46.1886C78.7535 46.2156 78.5709 46.289 78.4131 46.4025C78.3138 46.4635 78.1374 46.4802 78.1263 46.6577C78.0783 46.6817 78.0373 46.7178 78.0073 46.7625C77.9773 46.8073 77.9595 46.8591 77.9555 46.9129C77.8783 46.9129 77.8616 46.9961 77.8396 47.0516C77.6859 47.4438 77.6859 47.88 77.8396 48.2721C77.9024 48.5934 78.0489 48.8921 78.2642 49.1376V49.1764L78.3139 49.2208L78.3691 49.2763V49.3595C78.3691 49.3595 78.3691 49.415 78.3691 49.4261C78.732 49.8926 79.2121 50.2531 79.7599 50.4706C80.3076 50.6881 80.903 50.7546 81.4848 50.6633Z" fill="#C2D6FF"/>
<path d="M70.7256 66.3083C70.7642 67.5732 70.7918 69.0323 70.8856 70.4803C70.9058 71.0673 71.0726 71.6397 71.3708 72.1446C71.6276 72.6043 72.0067 72.9828 72.4655 73.2376C72.9244 73.4924 73.4449 73.6134 73.9683 73.5871C75.0132 73.5263 76.0268 73.2061 76.9186 72.6551C78.0679 72.062 79.156 71.3559 80.1668 70.5469C80.9605 69.9515 81.5982 69.1708 82.0252 68.2722C82.2143 67.8274 82.2949 67.3436 82.2604 66.861C82.2259 66.3785 82.0772 65.9113 81.8267 65.4983C81.2706 64.5634 80.5176 63.7624 79.6209 63.1515C78.1437 62.0648 76.5112 61.2099 74.779 60.6162C74.3143 60.4817 73.8242 60.4627 73.3506 60.5607C73.0875 60.584 72.8272 60.6323 72.5731 60.7049C72.1336 60.8568 71.7429 61.125 71.442 61.4813C71.1412 61.8377 70.9413 62.269 70.8635 62.7299C70.6313 63.908 70.5848 65.1156 70.7256 66.3083Z" fill="#C2D6FF"/>
<path d="M85.5711 65.465C86.8104 65.4527 88.0116 65.0318 88.9903 64.2667C89.3722 64.0063 89.6463 63.6144 89.7611 63.1648C89.8758 62.7152 89.8233 62.239 89.6134 61.8256C89.4884 61.5619 89.3051 61.3303 89.0777 61.1486C88.8502 60.9669 88.5846 60.8398 88.3009 60.7771C87.0816 60.4765 85.7951 60.6344 84.6833 61.2209C84.1142 61.5055 83.6021 61.8929 83.1723 62.3638C82.9866 62.5466 82.8587 62.7805 82.8047 63.0361C82.7508 63.2918 82.7731 63.5578 82.8689 63.8007C82.9758 64.1832 83.1808 64.5307 83.4635 64.8083C83.7462 65.0858 84.0964 65.2837 84.4792 65.3818C84.8354 65.4746 85.2051 65.5027 85.5711 65.465Z" fill="#C2D6FF"/>
<path d="M86.2549 72.128C86.941 72.1341 87.6113 71.9204 88.1686 71.5177C88.4261 71.3204 88.6331 71.0642 88.7724 70.7703C88.9118 70.4763 88.9794 70.1532 88.9697 69.8277C88.96 69.5022 88.8732 69.1837 88.7166 68.8987C88.56 68.6137 88.3381 68.3704 88.0692 68.189C87.3504 67.7446 86.5344 67.4837 85.6924 67.4289C84.9888 67.354 84.2779 67.4649 83.6299 67.7507C83.4037 67.8303 83.199 67.9616 83.0317 68.1343C82.8645 68.307 82.7393 68.5164 82.6661 68.746C82.5928 68.9756 82.5735 69.2191 82.6096 69.4575C82.6458 69.6958 82.7365 69.9225 82.8745 70.1197C82.9848 70.2972 83.0234 70.5191 83.1392 70.6745C83.3719 71.0291 83.6755 71.3311 84.0306 71.5613C84.3857 71.7915 84.7845 71.9448 85.2016 72.0115C85.5455 72.1002 85.9001 72.1394 86.2549 72.128Z" fill="#C2D6FF"/>
<path d="M80.6079 71.9283C80.2835 71.9312 79.9615 71.9855 79.6539 72.0892C79.5039 72.1294 79.3633 72.1992 79.2403 72.2944C79.1172 72.3896 79.0141 72.5084 78.937 72.644C78.7138 73.0432 78.5627 73.4789 78.4904 73.9311C78.457 74.3754 78.5757 74.8178 78.8267 75.1849C79.067 75.5628 79.4068 75.8663 79.8083 76.0615C80.1998 76.286 80.6338 76.4253 81.0822 76.4702C81.5307 76.5151 81.9834 76.4647 82.4112 76.3222C82.8264 76.2222 83.1996 75.993 83.4778 75.6673C83.756 75.3416 83.9251 74.936 83.9609 74.508C84.0005 74.1025 83.9252 73.6941 83.7437 73.3298C83.5622 72.9656 83.2818 72.6605 82.9351 72.4498C82.2448 72.0053 81.4205 71.8205 80.6079 71.9283Z" fill="#C2D6FF"/>
<path d="M82.5216 56.8159C82.783 56.8094 83.0424 56.8653 83.2782 56.9791C83.514 57.0929 83.7197 57.2613 83.8783 57.4705C84.0693 57.7281 84.1863 58.0336 84.2165 58.3535C84.2466 58.6734 84.1887 58.9956 84.0491 59.2847C83.9623 59.5786 83.7846 59.8371 83.5418 60.0225C83.3398 60.347 83.0589 60.6143 82.7257 60.7993C82.5448 60.9859 82.3123 61.1135 82.0584 61.1654C81.805 61.2982 81.5338 61.3935 81.2533 61.4483H81.165C80.9949 61.5382 80.8056 61.5852 80.6135 61.5852C80.4214 61.5852 80.2321 61.5382 80.0621 61.4483C79.9518 61.3984 79.7754 61.404 79.7423 61.232C79.6919 61.2119 79.6468 61.1805 79.6105 61.1401C79.5741 61.0997 79.5475 61.0514 79.5327 60.999C79.461 60.999 79.4334 60.9268 79.4003 60.8769C79.1888 60.5139 79.1217 60.0837 79.2128 59.673C79.2317 59.3463 79.3364 59.0305 79.5161 58.7576V58.7132L79.5547 58.6633L79.5989 58.6023V58.5191C79.5989 58.5191 79.5989 58.4636 79.5989 58.447C79.8983 57.9386 80.3269 57.5195 80.8405 57.2329C81.3542 56.9462 81.9343 56.8023 82.5216 56.8159Z" fill="#C2D6FF"/>
<path d="M28.3289 61.404C27.3583 60.5995 26.2333 59.6897 25.1469 58.7244C24.7025 58.3481 24.3592 57.8654 24.1487 57.3207C23.9441 56.836 23.8781 56.3035 23.958 55.783C24.0379 55.2626 24.2606 54.7749 24.601 54.3748C25.2906 53.5806 26.1635 52.969 27.1432 52.5939C28.314 52.0486 29.5349 51.6194 30.7884 51.3124C31.7427 51.0425 32.748 51.0121 33.7166 51.2236C34.1807 51.3472 34.6089 51.5803 34.9656 51.9035C35.3224 52.2267 35.5976 52.6307 35.7682 53.0821C36.1645 54.0883 36.3376 55.1695 36.2755 56.25C36.2196 58.0919 35.8906 59.9151 35.2994 61.6592C35.118 62.1087 34.8325 62.5081 34.4667 62.8242C34.2883 63.028 34.0907 63.2138 33.8766 63.379C33.488 63.6347 33.0383 63.7804 32.5745 63.8009C32.1107 63.8214 31.6499 63.7159 31.2405 63.4955C30.1656 62.9586 29.1827 62.2525 28.3289 61.404Z" fill="#C2D6FF"/>
<path d="M38.0899 50.1085C38.8587 49.13 39.9267 48.4339 41.1285 48.1279C41.5661 47.9827 42.0415 48.0041 42.4644 48.1882C42.8873 48.3723 43.2282 48.7062 43.4226 49.1265C43.5456 49.3865 43.6095 49.6708 43.6095 49.9587C43.6095 50.2466 43.5456 50.5309 43.4226 50.7909C42.9085 51.9447 41.9953 52.8714 40.8528 53.3984C40.2813 53.6744 39.6646 53.8436 39.0329 53.8977C38.7755 53.9325 38.5136 53.8899 38.28 53.7754C38.0465 53.6609 37.8517 53.4796 37.7204 53.2541C37.4846 52.9356 37.3365 52.5602 37.291 52.1657C37.2455 51.7712 37.3042 51.3716 37.4612 51.0072C37.6156 50.6722 37.8286 50.3678 38.0899 50.1085Z" fill="#C2D6FF"/>
<path d="M33.2756 45.4926C33.6923 44.9444 34.2718 44.5441 34.9301 44.3498C35.241 44.267 35.5671 44.26 35.8813 44.3293C36.1954 44.3986 36.4886 44.5423 36.7366 44.7484C36.9846 44.9545 37.1802 45.2171 37.3072 45.5144C37.4342 45.8117 37.4888 46.1351 37.4667 46.458C37.3777 47.3007 37.0842 48.1085 36.6119 48.8102C36.241 49.4167 35.718 49.9142 35.0954 50.2527C34.8943 50.3845 34.6655 50.4675 34.4271 50.4951C34.1886 50.5228 33.9471 50.4943 33.7214 50.412C33.4958 50.3297 33.2923 50.1958 33.1269 50.0209C32.9615 49.8459 32.8386 49.6347 32.7682 49.4039C32.702 49.2097 32.5476 49.0433 32.487 48.8491C32.3521 48.4467 32.3016 48.0206 32.3386 47.5976C32.3756 47.1746 32.4994 46.7639 32.7021 46.3914C32.8526 46.0674 33.0455 45.7652 33.2756 45.4926Z" fill="#C2D6FF"/>
<path d="M29.9724 50.1085C29.767 50.3629 29.5254 50.5853 29.2554 50.7687C29.1288 50.8635 28.9842 50.9311 28.8305 50.9674C28.6768 51.0037 28.5173 51.0078 28.362 50.9795C27.911 50.9154 27.4756 50.7688 27.0772 50.5468C26.7072 50.301 26.4326 49.9347 26.2995 49.5093C26.1494 49.0877 26.1189 48.6325 26.2113 48.1945C26.2761 47.7474 26.4332 47.319 26.6726 46.9368C26.9119 46.5546 27.2282 46.2271 27.601 45.9753C27.9346 45.7066 28.3438 45.5507 28.7706 45.5298C29.1974 45.5089 29.6199 45.624 29.9779 45.8588C30.3206 46.0754 30.5952 46.3852 30.7699 46.7525C30.9447 47.1198 31.0123 47.5294 30.9649 47.9337C30.8955 48.7527 30.5446 49.5218 29.9724 50.1085Z" fill="#C2D6FF"/>
<path d="M43.0145 57.8755C43.1796 57.6712 43.2943 57.4304 43.3489 57.1729C43.4036 56.9154 43.3967 56.6486 43.3289 56.3943C43.2438 56.0857 43.0766 55.8064 42.8453 55.5864C42.614 55.3664 42.3273 55.2141 42.0163 55.146C41.7293 55.035 41.4149 55.0175 41.1175 55.096C40.7408 55.059 40.361 55.1202 40.0145 55.2736C39.7556 55.3009 39.5111 55.4074 39.3142 55.5787C39.0533 55.6963 38.8131 55.8556 38.6028 56.0503L38.5366 56.1113C38.364 56.1933 38.2133 56.3156 38.0972 56.4681C37.9811 56.6206 37.9029 56.7988 37.8693 56.9879C37.8417 57.1044 37.726 57.2431 37.8418 57.3762C37.8249 57.4273 37.8205 57.4818 37.8291 57.5349C37.8378 57.5881 37.8591 57.6383 37.8913 57.6814C37.8527 57.7479 37.8913 57.8034 37.8913 57.8644C38.0472 58.2557 38.3448 58.573 38.7241 58.7521C38.9917 58.9376 39.3043 59.0468 39.6285 59.0683H39.7719L39.8436 59.1127C39.8436 59.1127 39.8822 59.146 39.9043 59.146C40.4882 59.2326 41.0845 59.1604 41.6314 58.937C42.1783 58.7136 42.6558 58.3471 43.0145 57.8755Z" fill="#C2D6FF"/>
<path d="M38.7903 76.3222C39.2922 77.4873 39.8545 78.8243 40.4777 80.1392C40.7178 80.6708 41.0832 81.1354 41.5421 81.4928C41.9503 81.8239 42.4423 82.0337 42.9627 82.0984C43.483 82.1631 44.0109 82.0802 44.4869 81.859C45.4357 81.414 46.2586 80.7369 46.8803 79.8895C47.7248 78.9067 48.4728 77.8439 49.1138 76.7161C49.6298 75.8662 49.9325 74.9028 49.996 73.9089C50.0058 73.4263 49.9015 72.9482 49.6915 72.5141C49.4815 72.08 49.1719 71.7024 48.7884 71.4123C47.9348 70.7533 46.9487 70.2895 45.8987 70.0531C44.1246 69.592 42.2912 69.4049 40.4613 69.4983C39.9804 69.5468 39.5185 69.7124 39.1156 69.981C38.8798 70.101 38.6563 70.2441 38.4483 70.4082C38.0952 70.7125 37.8307 71.1074 37.6831 71.5509C37.5355 71.9945 37.5103 72.4701 37.6101 72.9269C37.8237 74.114 38.222 75.2599 38.7903 76.3222Z" fill="#C2D6FF"/>
<path d="M52.2571 69.981C53.4015 69.5036 54.3586 68.6617 54.9813 67.5843C55.239 67.2012 55.3487 66.7366 55.2898 66.2779C55.2309 65.8192 55.0075 65.3979 54.6616 65.0933C54.4474 64.8949 54.1908 64.7483 53.9118 64.6646C53.6327 64.581 53.3384 64.5625 53.0512 64.6106C51.8083 64.7863 50.6724 65.4139 49.8582 66.3748C49.4355 66.8522 49.103 67.403 48.8767 68.0004C48.7723 68.24 48.7405 68.5053 48.7857 68.763C48.8308 69.0206 48.9508 69.2591 49.1303 69.4483C49.3709 69.7635 49.6897 70.0094 50.0546 70.1613C50.4196 70.3132 50.8178 70.3658 51.2094 70.3138C51.5756 70.2669 51.9305 70.1541 52.2571 69.981Z" fill="#C2D6FF"/>
<path d="M55.3564 75.9061C55.9928 75.6566 56.5335 75.2096 56.9004 74.6301C57.0652 74.3516 57.1617 74.0376 57.1819 73.7141C57.2022 73.3906 57.1455 73.0669 57.0167 72.7699C56.8879 72.4728 56.6906 72.2107 56.4412 72.0056C56.1918 71.8004 55.8975 71.6579 55.5825 71.5898C54.7509 71.4479 53.8975 71.5107 53.0953 71.7729C52.414 71.9664 51.7957 72.3378 51.3031 72.8492C51.1229 73.0079 50.9819 73.2065 50.8908 73.4293C50.7998 73.6521 50.7613 73.893 50.7784 74.1333C50.7955 74.3736 50.8677 74.6066 50.9894 74.8141C51.111 75.0215 51.2788 75.1979 51.4796 75.3291C51.645 75.4456 51.7607 75.6398 51.9317 75.7563C52.2795 75.9974 52.6733 76.1632 53.0881 76.2434C53.5029 76.3236 53.9298 76.3165 54.3417 76.2223C54.6932 76.1663 55.035 76.0598 55.3564 75.9061Z" fill="#C2D6FF"/>
<path d="M50.0346 77.8479C49.7364 77.9747 49.4593 78.1469 49.213 78.3583C49.0856 78.4523 48.9798 78.5729 48.9028 78.7116C48.8257 78.8504 48.7791 79.0043 48.7662 79.1627C48.698 79.6173 48.7187 80.0809 48.827 80.5275C48.9575 80.9542 49.2326 81.3212 49.6045 81.5649C49.9647 81.8263 50.391 81.9802 50.8342 82.0088C51.281 82.0724 51.7362 82.0401 52.1697 81.9138C52.6031 81.7876 53.005 81.5704 53.349 81.2765C53.6954 81.0269 53.9553 80.6741 54.0919 80.268C54.2284 79.8619 54.2348 79.4229 54.1101 79.0129C53.9994 78.6211 53.7796 78.2693 53.4767 77.999C53.1738 77.7286 52.8004 77.5511 52.4005 77.4872C51.5943 77.3228 50.7562 77.4506 50.0346 77.8479Z" fill="#C2D6FF"/>
<path d="M46.2185 63.096C46.4586 62.9923 46.7197 62.9473 46.9804 62.9647C47.2412 62.9821 47.4941 63.0613 47.7185 63.1959C47.9908 63.3627 48.2124 63.6013 48.3592 63.886C48.5061 64.1707 48.5725 64.4904 48.5512 64.8104C48.5809 65.1175 48.5133 65.4262 48.3582 65.6925C48.2886 66.0677 48.1255 66.4189 47.884 66.7133C47.788 66.9574 47.6182 67.165 47.3986 67.3069C47.2123 67.5232 46.9948 67.7102 46.7534 67.8617L46.6762 67.9061C46.5497 68.051 46.3906 68.1633 46.2122 68.2338C46.0338 68.3042 45.8412 68.3307 45.6505 68.3111C45.5347 68.3111 45.3748 68.3776 45.2756 68.2278C45.2224 68.2291 45.1696 68.2178 45.1217 68.1946C45.0737 68.1715 45.032 68.1372 44.9998 68.0947C44.9281 68.0947 44.8785 68.0614 44.8288 68.0281C44.4998 67.7678 44.2778 67.3944 44.2056 66.9796C44.1047 66.668 44.0857 66.3354 44.1505 66.0142V65.9754V65.9144V65.8422V65.7591C44.1505 65.7313 44.1505 65.7091 44.1505 65.6869C44.2394 65.1107 44.4772 64.568 44.8401 64.1133C45.2031 63.6586 45.6785 63.3078 46.2185 63.096Z" fill="#C2D6FF"/>
<path d="M5.24451 99.984C4.14158 99.3571 2.88423 98.6525 1.65445 97.8924C1.15184 97.5991 0.730807 97.1832 0.430211 96.6829C0.145134 96.2403 -0.0115827 95.7265 -0.022299 95.1993C-0.0330153 94.672 0.102634 94.1521 0.369491 93.6982C0.911482 92.7867 1.6693 92.0243 2.57536 91.479C3.63754 90.7396 4.76776 90.1043 5.95041 89.5817C6.84382 89.1519 7.82864 88.9499 8.81801 88.9936C9.29538 89.0358 9.75611 89.191 10.1625 89.4465C10.5689 89.702 10.9093 90.0506 11.1562 90.4638C11.7179 91.3875 12.0736 92.4229 12.1986 93.4985C12.4616 95.3226 12.4485 97.1762 12.1599 98.9964C12.0616 99.4714 11.8495 99.9151 11.5422 100.289C11.4007 100.513 11.2362 100.721 11.0515 100.91C10.7104 101.227 10.2908 101.446 9.83666 101.544C9.38254 101.642 8.91073 101.614 8.47065 101.465C7.32522 101.143 6.2367 100.644 5.24451 99.984Z" fill="#C2D6FF"/>
<path d="M12.965 87.1739C13.5586 86.0779 14.492 85.207 15.6231 84.694C16.0301 84.4774 16.5016 84.4176 16.9494 84.5259C17.3971 84.6342 17.7902 84.9031 18.055 85.2821C18.2286 85.5178 18.3463 85.7903 18.3988 86.0789C18.4514 86.3674 18.4375 86.6642 18.3583 86.9465C18.0535 88.172 17.3142 89.2433 16.2793 89.9589C15.7628 90.3294 15.1834 90.602 14.5697 90.7634C14.3231 90.8433 14.0585 90.848 13.8093 90.7769C13.56 90.7059 13.3373 90.5622 13.1691 90.364C12.8822 90.091 12.6719 89.7466 12.5596 89.3657C12.4472 88.9849 12.4368 88.581 12.5293 88.1947C12.6144 87.8316 12.7618 87.4861 12.965 87.1739Z" fill="#C2D6FF"/>
<path d="M7.41716 83.4512C7.73341 82.8402 8.23329 82.3452 8.84551 82.0366C9.13984 81.9016 9.46203 81.8393 9.78513 81.855C10.1082 81.8707 10.4229 81.9638 10.7029 82.1266C10.983 82.2895 11.2203 82.5174 11.3951 82.7912C11.5699 83.0651 11.677 83.377 11.7076 83.7009C11.7663 84.5479 11.6146 85.3963 11.2664 86.1697C11.0024 86.8244 10.5727 87.3982 10.0201 87.8341C9.84454 87.9987 9.6334 88.1201 9.4033 88.1886C9.1732 88.2571 8.9305 88.2709 8.69418 88.229C8.45785 88.187 8.23435 88.0905 8.04146 87.9468C7.84858 87.8032 7.69154 87.6165 7.58262 87.4013C7.48336 87.2183 7.30693 87.0851 7.20766 86.902C7.00648 86.5288 6.88439 86.1178 6.84926 85.6947C6.81414 85.2717 6.8667 84.8459 7.00356 84.4443C7.0938 84.0952 7.23307 83.7608 7.41716 83.4512Z" fill="#C2D6FF"/>
<path d="M4.95221 88.5719C4.79413 88.8566 4.59528 89.1165 4.3621 89.3431C4.25286 89.4573 4.1219 89.5481 3.9769 89.61C3.83191 89.672 3.676 89.7039 3.51847 89.7037C3.06287 89.7216 2.60795 89.652 2.17831 89.4984C1.76942 89.3221 1.43415 89.0083 1.2298 88.6108C1.01319 88.2217 0.906369 87.7804 0.920945 87.3347C0.906397 86.8813 0.98737 86.4299 1.15844 86.0102C1.32952 85.5905 1.58685 85.2118 1.91361 84.8992C2.19186 84.5724 2.56596 84.3426 2.98208 84.243C3.39821 84.1433 3.83494 84.1788 4.22975 84.3444C4.60501 84.4967 4.92941 84.7536 5.16479 85.0847C5.40018 85.4158 5.5369 85.8076 5.55887 86.2141C5.6398 87.0474 5.42485 87.8827 4.95221 88.5719Z" fill="#C2D6FF"/>
<path d="M19.1248 93.9367C19.2543 93.7083 19.3269 93.4517 19.3365 93.189C19.3461 92.9262 19.2924 92.6651 19.18 92.4277C19.0448 92.1375 18.8327 91.8904 18.5672 91.7133C18.3017 91.5362 17.9929 91.4359 17.6746 91.4235C17.3731 91.3648 17.0609 91.4016 16.7811 91.529C16.4033 91.5602 16.0394 91.6861 15.7223 91.8951C15.4708 91.9654 15.2472 92.1128 15.0827 92.3167C14.848 92.4816 14.6381 92.6797 14.4595 92.9048L14.4099 92.9769C14.2534 93.0882 14.1253 93.2352 14.0362 93.4059C13.947 93.5766 13.8993 93.7661 13.897 93.9589C13.897 94.081 13.8032 94.2307 13.9411 94.3417C13.9338 94.3956 13.9396 94.4504 13.9578 94.5016C13.976 94.5528 14.0062 94.5988 14.0459 94.6358C14.0183 94.7079 14.0459 94.7578 14.0955 94.8133C14.3152 95.1722 14.6621 95.434 15.0661 95.5456C15.3613 95.6802 15.6867 95.7338 16.0091 95.701H16.0752H16.147H16.2296C16.2296 95.701 16.2738 95.701 16.2959 95.701C16.8803 95.6846 17.45 95.5126 17.9469 95.2027C18.4439 94.8928 18.8503 94.456 19.1248 93.9367Z" fill="#C2D6FF"/>
<path d="M28.6928 111.285C29.7958 111.84 31.0917 112.539 32.4042 113.155C32.9169 113.413 33.4855 113.539 34.0586 113.521C34.5821 113.517 35.0942 113.366 35.5368 113.085C35.9793 112.803 36.3345 112.403 36.5623 111.929C37.013 110.978 37.2232 109.93 37.1743 108.877C37.2082 107.577 37.1139 106.276 36.8931 104.994C36.7534 104.005 36.3747 103.066 35.7902 102.259C35.493 101.879 35.1106 101.576 34.6744 101.375C34.2382 101.173 33.7607 101.079 33.2811 101.099C32.2043 101.135 31.1484 101.408 30.1873 101.898C28.5296 102.681 26.9978 103.709 25.6432 104.949C25.3077 105.297 25.0582 105.718 24.9152 106.181C24.8079 106.425 24.7248 106.68 24.6671 106.941C24.5873 107.401 24.6322 107.874 24.7972 108.31C24.9621 108.747 25.2411 109.131 25.6046 109.421C26.529 110.203 27.5715 110.833 28.6928 111.285Z" fill="#C2D6FF"/>
<path d="M35.0953 97.7869C35.6806 96.6868 35.8899 95.4235 35.691 94.1919C35.6469 93.7309 35.4372 93.3018 35.1011 92.9852C34.7651 92.6686 34.3258 92.4862 33.8656 92.4721C33.5758 92.457 33.2864 92.5081 33.019 92.6215C32.7516 92.7348 32.5133 92.9076 32.3216 93.1268C31.4724 94.0583 30.9899 95.2694 30.9649 96.5332C30.9412 97.1714 31.0327 97.8085 31.2351 98.4138C31.3056 98.6642 31.4477 98.8883 31.6438 99.058C31.84 99.2276 32.0814 99.3355 32.338 99.3681C32.7221 99.4582 33.123 99.4451 33.5005 99.3302C33.8779 99.2153 34.2188 99.0026 34.4888 98.7134C34.7443 98.4434 34.9496 98.1296 35.0953 97.7869Z" fill="#C2D6FF"/>
<path d="M41.2277 100.389C41.5635 99.7872 41.7006 99.0936 41.6192 98.4084C41.569 98.0893 41.4444 97.7867 41.2556 97.5253C41.0668 97.264 40.8193 97.0514 40.5331 96.9047C40.247 96.7581 39.9304 96.6816 39.6093 96.6816C39.2881 96.6817 38.9715 96.7582 38.6854 96.9049C37.9516 97.3253 37.3308 97.9195 36.8767 98.6358C36.4713 99.2199 36.2259 99.9011 36.1653 100.611C36.1262 100.849 36.1425 101.092 36.2129 101.323C36.2834 101.553 36.4059 101.764 36.5711 101.939C36.7362 102.114 36.9394 102.248 37.1647 102.33C37.3899 102.412 37.6311 102.441 37.8692 102.414C38.0733 102.414 38.2829 102.475 38.4869 102.453C38.9079 102.419 39.3171 102.296 39.6884 102.094C40.0597 101.891 40.3849 101.613 40.6431 101.277C40.8793 101.01 41.0762 100.711 41.2277 100.389Z" fill="#C2D6FF"/>
<path d="M38.3325 105.277C38.1785 105.564 38.0723 105.875 38.0181 106.198C37.979 106.351 37.9732 106.511 38.0007 106.667C38.0283 106.823 38.0888 106.971 38.1781 107.102C38.4147 107.495 38.7235 107.84 39.0881 108.117C39.4574 108.362 39.8999 108.47 40.3398 108.422C40.7848 108.394 41.2128 108.24 41.575 107.978C41.9596 107.742 42.2901 107.427 42.5448 107.053C42.7996 106.679 42.9728 106.255 43.0531 105.809C43.1607 105.398 43.1378 104.962 42.9875 104.564C42.8372 104.167 42.5671 103.826 42.2148 103.59C41.8823 103.358 41.4907 103.226 41.0862 103.21C40.6817 103.195 40.2811 103.296 39.9317 103.501C39.2076 103.885 38.6414 104.514 38.3325 105.277Z" fill="#C2D6FF"/>
<path d="M26.0844 96.3168C26.2052 96.0839 26.3791 95.883 26.5918 95.7306C26.8046 95.5782 27.0503 95.4787 27.3086 95.4402C27.6231 95.396 27.9435 95.4394 28.2352 95.5656C28.5269 95.6917 28.7786 95.8959 28.963 96.1559C29.1776 96.3751 29.3184 96.6564 29.3656 96.9603C29.5542 97.2991 29.6512 97.6817 29.6469 98.0699C29.7242 98.3211 29.7242 98.5899 29.6469 98.8411C29.6377 99.1274 29.5895 99.4112 29.5035 99.6843L29.4704 99.7676C29.4611 99.9617 29.4064 100.151 29.3105 100.32C29.2147 100.488 29.0804 100.632 28.9189 100.738C28.8251 100.811 28.7425 100.966 28.577 100.91C28.5363 100.947 28.4875 100.973 28.4347 100.986C28.382 101 28.3268 101 28.2737 100.988C28.2296 101.049 28.1634 101.038 28.1027 101.044C27.6843 101.057 27.2763 100.91 26.9611 100.633C26.6875 100.456 26.4635 100.212 26.3105 99.9229L26.2829 99.8564V99.7842L26.2112 99.7343C26.2112 99.7343 26.1671 99.7343 26.156 99.6899C25.8464 99.1851 25.6765 98.6062 25.6639 98.0131C25.6513 97.4201 25.7965 96.8345 26.0844 96.3168Z" fill="#C2D6FF"/>
<path d="M275.949 43.7451C275.149 42.7686 274.217 41.6591 273.335 40.5051C272.971 40.0514 272.724 39.5138 272.618 38.9406C272.508 38.4242 272.544 37.8873 272.721 37.3903C272.899 36.8934 273.211 36.4561 273.622 36.1278C274.449 35.4841 275.42 35.0536 276.451 34.874C277.705 34.5619 278.987 34.376 280.278 34.3192C281.265 34.2405 282.257 34.4042 283.168 34.7963C283.597 35.0091 283.971 35.321 284.259 35.7066C284.546 36.0922 284.739 36.5407 284.822 37.0155C285.016 38.0814 284.981 39.1769 284.717 40.2277C284.314 42.0241 283.647 43.7499 282.737 45.3484C282.472 45.7558 282.115 46.0943 281.695 46.3359C281.482 46.4923 281.255 46.6279 281.017 46.7409C280.586 46.918 280.117 46.9753 279.657 46.907C279.197 46.8387 278.764 46.6472 278.403 46.3525C277.453 45.6187 276.625 44.7387 275.949 43.7451Z" fill="#7CA6FC"/>
<path d="M287.667 34.5355C288.608 33.7233 289.788 33.2455 291.026 33.1763C291.483 33.111 291.949 33.2174 292.333 33.4753C292.718 33.7331 292.994 34.1244 293.11 34.5744C293.191 34.8562 293.206 35.1529 293.155 35.4416C293.103 35.7302 292.986 36.003 292.813 36.2388C292.095 37.2763 291.023 38.0127 289.802 38.3081C289.187 38.472 288.548 38.5209 287.916 38.4524C287.656 38.4363 287.408 38.3442 287.2 38.1875C286.992 38.0307 286.834 37.8161 286.746 37.5703C286.577 37.2112 286.505 36.8137 286.536 36.4176C286.566 36.0214 286.7 35.6403 286.923 35.3123C287.124 35.0112 287.376 34.7483 287.667 34.5355Z" fill="#7CA6FC"/>
<path d="M283.818 29.0765C284.327 28.6162 284.968 28.3322 285.649 28.2665C285.97 28.2442 286.292 28.2993 286.587 28.427C286.883 28.5547 287.144 28.7515 287.348 29.001C287.553 29.2505 287.696 29.5455 287.765 29.8616C287.834 30.1776 287.827 30.5057 287.745 30.8185C287.499 31.6314 287.058 32.3708 286.46 32.9711C285.977 33.4883 285.369 33.8706 284.695 34.0806C284.473 34.1714 284.234 34.2091 283.995 34.1907C283.756 34.1723 283.525 34.0982 283.32 33.9745C283.114 33.8507 282.94 33.6806 282.811 33.4776C282.683 33.2745 282.603 33.0442 282.577 32.8046C282.544 32.5994 282.429 32.4052 282.406 32.1999C282.349 31.7797 282.379 31.352 282.495 30.9441C282.61 30.5362 282.81 30.1571 283.079 29.831C283.288 29.5445 283.537 29.2903 283.818 29.0765Z" fill="#7CA6FC"/>
<path d="M279.699 32.971C279.452 33.182 279.175 33.3541 278.877 33.4815C278.734 33.5492 278.579 33.5875 278.42 33.5941C278.262 33.6008 278.105 33.5757 277.956 33.5203C277.524 33.372 277.123 33.1423 276.776 32.8434C276.463 32.5313 276.268 32.1194 276.225 31.6784C276.157 31.2368 276.215 30.7851 276.39 30.3746C276.536 29.9449 276.77 29.5512 277.078 29.2194C277.386 28.8875 277.761 28.6252 278.177 28.4495C278.554 28.2516 278.984 28.1778 279.405 28.2385C279.827 28.2992 280.219 28.4914 280.526 28.7879C280.816 29.0679 281.022 29.4248 281.12 29.8175C281.218 30.2101 281.203 30.6225 281.077 31.0071C280.862 31.8048 280.374 32.5003 279.699 32.971Z" fill="#7CA6FC"/>
<path d="M291.042 43.0682C291.242 42.899 291.399 42.6846 291.501 42.4425C291.603 42.2005 291.646 41.9377 291.627 41.6757C291.602 41.3557 291.491 41.0487 291.305 40.7877C291.119 40.5267 290.867 40.3216 290.574 40.1944C290.315 40.031 290.012 39.9533 289.708 39.9725C289.349 39.8692 288.97 39.8559 288.605 39.9336C288.346 39.9131 288.087 39.9711 287.86 40.1001C287.583 40.1696 287.317 40.2799 287.072 40.4274L286.995 40.4773C286.81 40.5254 286.639 40.6169 286.496 40.7441C286.354 40.8714 286.243 41.031 286.173 41.2097C286.123 41.3206 285.991 41.4316 286.079 41.5869C286.055 41.6349 286.042 41.6882 286.042 41.7422C286.042 41.7963 286.055 41.8496 286.079 41.8976C286.03 41.9531 286.079 42.0141 286.079 42.0751C286.157 42.4888 286.387 42.8575 286.724 43.107C286.953 43.3421 287.241 43.5108 287.557 43.5953H287.623H287.695L287.761 43.6507C287.761 43.6507 287.794 43.6951 287.811 43.7007C288.358 43.8882 288.943 43.9284 289.51 43.8175C290.077 43.7065 290.606 43.4482 291.042 43.0682Z" fill="#7CA6FC"/>
<path d="M290.64 61.6092C291.511 62.5191 292.504 63.5787 293.541 64.594C293.949 65.0085 294.453 65.3153 295.008 65.4872C295.505 65.6558 296.039 65.6813 296.549 65.5607C297.06 65.4401 297.527 65.1783 297.897 64.8048C298.628 64.0517 299.164 63.1297 299.458 62.1196C299.912 60.9021 300.245 59.642 300.451 58.3582C300.643 57.381 300.594 56.3712 300.307 55.4178C300.15 54.9621 299.886 54.5507 299.539 54.2178C299.192 53.885 298.771 53.6402 298.311 53.5038C297.282 53.1846 296.196 53.0957 295.129 53.243C293.308 53.4376 291.526 53.909 289.846 54.6411C289.409 54.8533 289.031 55.1694 288.743 55.562C288.562 55.7577 288.401 55.9715 288.263 56.2C288.039 56.6092 287.93 57.0715 287.945 57.5382C287.961 58.0049 288.101 58.4587 288.351 58.8519C288.965 59.8865 289.738 60.817 290.64 61.6092Z" fill="#7CA6FC"/>
<path d="M301.068 50.9462C301.975 50.0966 302.581 48.9727 302.794 47.7451C302.901 47.2954 302.84 46.8223 302.625 46.4139C302.41 46.0055 302.055 45.6899 301.625 45.5259C301.359 45.4188 301.072 45.3732 300.785 45.3924C300.499 45.4116 300.221 45.4951 299.971 45.6369C298.867 46.2386 298.02 47.225 297.588 48.4108C297.357 49.0069 297.235 49.6405 297.23 50.2805C297.216 50.5411 297.278 50.8001 297.41 51.0251C297.541 51.2501 297.736 51.4311 297.969 51.5454C298.303 51.7569 298.686 51.876 299.08 51.8906C299.474 51.9052 299.865 51.8148 300.213 51.6286C300.536 51.4535 300.825 51.2225 301.068 50.9462Z" fill="#7CA6FC"/>
<path d="M306.02 55.4178C306.531 54.9589 306.884 54.3491 307.03 53.6757C307.087 53.3576 307.068 53.0302 306.975 52.7207C306.882 52.4112 306.718 52.1283 306.495 51.8953C306.272 51.6624 305.997 51.4861 305.693 51.3808C305.389 51.2756 305.065 51.2445 304.746 51.2902C303.92 51.4462 303.144 51.8023 302.485 52.3276C301.916 52.7469 301.465 53.3094 301.179 53.9587C301.063 54.1705 300.999 54.4064 300.99 54.6477C300.981 54.889 301.027 55.1291 301.126 55.3491C301.225 55.5692 301.373 55.763 301.56 55.9155C301.746 56.068 301.965 56.1749 302.199 56.2278C302.397 56.2777 302.574 56.4164 302.75 56.4663C303.16 56.5712 303.586 56.5894 304.003 56.5196C304.42 56.4499 304.817 56.2938 305.171 56.0613C305.482 55.8872 305.768 55.6707 306.02 55.4178Z" fill="#7CA6FC"/>
<path d="M301.708 59.0905C301.469 59.3122 301.266 59.5706 301.107 59.8561C301.023 59.99 300.967 60.1399 300.943 60.2965C300.919 60.4531 300.928 60.6129 300.969 60.7659C301.072 61.2171 301.259 61.6444 301.52 62.0253C301.796 62.3803 302.186 62.6275 302.623 62.7243C303.05 62.8493 303.503 62.8493 303.93 62.7243C304.371 62.6272 304.786 62.4376 305.149 62.168C305.512 61.8984 305.815 61.5549 306.037 61.1598C306.276 60.8043 306.399 60.3819 306.386 59.9526C306.373 59.5233 306.226 59.109 305.965 58.7687C305.726 58.4404 305.399 58.1876 305.022 58.0402C304.644 57.8927 304.233 57.8568 303.836 57.9365C303.013 58.0528 302.257 58.4622 301.708 59.0905Z" fill="#7CA6FC"/>
<path d="M293.022 46.6022C293.212 46.4211 293.442 46.2879 293.694 46.2136C293.945 46.1394 294.21 46.1261 294.467 46.175C294.78 46.2363 295.07 46.3824 295.306 46.5975C295.542 46.8126 295.716 47.0886 295.807 47.3955C295.939 47.6735 295.981 47.9855 295.928 48.2887C295.991 48.6602 295.961 49.0415 295.84 49.3983C295.832 49.661 295.743 49.9148 295.587 50.1251C295.489 50.3959 295.352 50.6503 295.178 50.8796L295.123 50.9462C295.056 51.1271 294.947 51.2889 294.803 51.4175C294.66 51.5461 294.488 51.6376 294.302 51.6841C294.186 51.7229 294.065 51.8449 293.921 51.7395C293.871 51.7611 293.817 51.7699 293.763 51.7651C293.709 51.7602 293.657 51.7419 293.612 51.7118C293.552 51.7562 293.491 51.7118 293.43 51.7118C293.031 51.5858 292.694 51.3122 292.487 50.9462C292.284 50.6913 292.151 50.3871 292.101 50.0641V49.9809V49.9032L292.052 49.8366C292.052 49.8366 292.019 49.7978 292.013 49.7756C291.889 49.2041 291.917 48.6098 292.095 48.0527C292.272 47.4956 292.592 46.9953 293.022 46.6022Z" fill="#7CA6FC"/>
<path d="M209.684 48.0613C209.718 46.7964 209.734 45.3428 209.822 43.8893C209.838 43.3023 210.003 42.7291 210.302 42.2249C210.556 41.7626 210.933 41.381 211.391 41.1231C211.849 40.8653 212.37 40.7415 212.894 40.7658C213.94 40.8242 214.955 41.1405 215.85 41.6868C216.999 42.2752 218.087 42.9777 219.098 43.7839C219.896 44.3746 220.539 45.1514 220.973 46.0474C221.161 46.4919 221.243 46.9749 221.21 47.457C221.178 47.9392 221.032 48.4067 220.786 48.8214C220.239 49.7541 219.497 50.5565 218.613 51.1737C217.138 52.2662 215.507 53.1284 213.776 53.7313C213.314 53.8649 212.826 53.8858 212.354 53.7923C212.089 53.7689 211.826 53.7206 211.57 53.648C211.13 53.4994 210.739 53.2337 210.437 52.8792C210.135 52.5246 209.934 52.0943 209.855 51.6341C209.61 50.4599 209.553 49.2538 209.684 48.0613Z" fill="#9ABBFC"/>
<path d="M224.53 48.8435C225.77 48.8511 226.973 49.2682 227.955 50.0308C228.336 50.2902 228.611 50.6803 228.727 51.1284C228.844 51.5765 228.795 52.0521 228.589 52.4663C228.464 52.7309 228.281 52.9633 228.054 53.146C227.826 53.3286 227.56 53.4567 227.276 53.5204C226.059 53.8266 224.772 53.6747 223.659 53.0932C223.09 52.819 222.577 52.443 222.142 51.9837C221.956 51.8011 221.828 51.5675 221.773 51.312C221.718 51.0565 221.739 50.7903 221.833 50.5467C221.939 50.1638 222.143 49.8156 222.424 49.5371C222.706 49.2586 223.056 49.0596 223.438 48.9601C223.792 48.8565 224.162 48.817 224.53 48.8435Z" fill="#9ABBFC"/>
<path d="M225.186 42.1806C225.871 42.1705 226.542 42.3803 227.1 42.7797C227.359 42.9754 227.568 43.2307 227.709 43.5243C227.85 43.8178 227.919 44.1411 227.91 44.467C227.902 44.7929 227.816 45.112 227.659 45.3976C227.503 45.6832 227.281 45.9269 227.012 46.1084C226.296 46.5569 225.482 46.8217 224.64 46.8796C223.937 46.9592 223.226 46.85 222.578 46.5634C222.351 46.4857 222.145 46.3559 221.976 46.1843C221.808 46.0127 221.681 45.8039 221.607 45.5745C221.533 45.3452 221.512 45.1016 221.548 44.863C221.583 44.6244 221.673 44.3974 221.811 44.2C221.922 44.028 221.96 43.8005 222.076 43.6452C222.307 43.2892 222.609 42.9858 222.963 42.7546C223.317 42.5233 223.716 42.3694 224.133 42.3026C224.476 42.2093 224.831 42.1682 225.186 42.1806Z" fill="#9ABBFC"/>
<path d="M219.539 42.4025C219.215 42.4 218.893 42.3457 218.585 42.2416C218.434 42.2053 218.291 42.1372 218.168 42.0415C218.044 41.9459 217.942 41.825 217.868 41.6868C217.638 41.2906 217.484 40.8538 217.416 40.3997C217.376 39.9556 217.493 39.5115 217.747 39.1459C217.983 38.7687 218.319 38.4652 218.718 38.2693C219.109 38.0414 219.543 37.8995 219.993 37.8526C220.442 37.8058 220.897 37.8551 221.326 37.9974C221.741 38.0964 222.114 38.3245 222.392 38.6492C222.67 38.974 222.84 39.3788 222.876 39.8061C222.92 40.2102 222.848 40.6185 222.669 40.9831C222.49 41.3477 222.212 41.6534 221.866 41.8643C221.178 42.3133 220.354 42.5039 219.539 42.4025Z" fill="#9ABBFC"/>
<path d="M221.514 57.5094C221.776 57.5146 222.036 57.457 222.272 57.3412C222.508 57.2255 222.713 57.0549 222.87 56.8436C223.059 56.5858 223.174 56.2811 223.203 55.9624C223.232 55.6437 223.174 55.3231 223.036 55.035C222.947 54.7391 222.767 54.479 222.523 54.2916C222.319 53.9695 222.036 53.7058 221.701 53.526C221.522 53.337 221.289 53.209 221.034 53.1598C220.779 53.0272 220.505 52.9337 220.223 52.8824H220.135C219.965 52.7925 219.776 52.7455 219.583 52.7455C219.391 52.7455 219.202 52.7925 219.032 52.8824C218.922 52.9323 218.745 52.9268 218.712 53.0988C218.662 53.118 218.617 53.1493 218.581 53.1899C218.546 53.2305 218.521 53.2792 218.508 53.3318C218.431 53.3318 218.409 53.4039 218.37 53.4539C218.159 53.8192 218.094 54.2515 218.188 54.6633C218.21 54.9885 218.317 55.3022 218.497 55.5731V55.6175L218.536 55.6675L218.58 55.7285V55.8117C218.58 55.8395 218.58 55.8672 218.58 55.8838C218.881 56.3928 219.311 56.8119 219.827 57.0976C220.343 57.3834 220.925 57.5255 221.514 57.5094Z" fill="#9ABBFC"/>
<path d="M209.122 71.2404C209.188 72.5053 209.243 73.9588 209.37 75.4068C209.398 75.9971 209.577 76.5702 209.888 77.0712C210.154 77.5273 210.541 77.8995 211.006 78.1456C211.471 78.3917 211.995 78.5019 212.519 78.4637C213.562 78.3776 214.567 78.0346 215.447 77.4651C216.582 76.8458 217.653 76.1155 218.646 75.2848C219.428 74.6732 220.051 73.8792 220.46 72.9713C220.637 72.5211 220.706 72.0351 220.661 71.5531C220.616 71.071 220.458 70.6065 220.201 70.1974C219.636 69.2829 218.884 68.4999 217.995 67.9005C216.492 66.8492 214.842 66.0301 213.098 65.4706C212.629 65.357 212.139 65.357 211.67 65.4706C211.406 65.499 211.145 65.5547 210.892 65.637C210.458 65.7988 210.075 66.0753 209.784 66.4375C209.493 66.7998 209.304 67.2342 209.238 67.6953C209.016 68.8637 208.977 70.0598 209.122 71.2404Z" fill="#9ABBFC"/>
<path d="M223.945 70.0809C225.185 70.0428 226.377 69.5943 227.337 68.8048C227.709 68.5344 227.97 68.1367 228.072 67.6863C228.174 67.2359 228.108 66.7637 227.888 66.3582C227.758 66.0968 227.57 65.8689 227.339 65.692C227.108 65.515 226.839 65.3937 226.554 65.3374C225.327 65.0646 224.043 65.2499 222.942 65.8589C222.38 66.1562 221.877 66.5548 221.458 67.0351C221.277 67.222 221.155 67.4586 221.107 67.7152C221.059 67.9719 221.087 68.237 221.188 68.4775C221.305 68.8588 221.519 69.2025 221.809 69.4742C222.1 69.7459 222.456 69.936 222.842 70.0254C223.204 70.1083 223.577 70.1271 223.945 70.0809Z" fill="#9ABBFC"/>
<path d="M224.773 76.7383C225.457 76.7296 226.122 76.5024 226.67 76.0892C226.925 75.8871 227.128 75.6265 227.262 75.3292C227.396 75.0318 227.457 74.7065 227.44 74.3804C227.423 74.0543 227.329 73.737 227.165 73.4552C227.002 73.1733 226.773 72.9351 226.499 72.7605C225.772 72.3279 224.949 72.0839 224.105 72.0504C223.4 71.9874 222.69 72.1138 222.048 72.4165C221.824 72.5015 221.623 72.6375 221.459 72.814C221.296 72.9906 221.176 73.2028 221.108 73.434C221.04 73.6652 221.027 73.909 221.068 74.1464C221.11 74.3838 221.206 74.6083 221.348 74.8021C221.458 74.9741 221.502 75.196 221.624 75.3569C221.864 75.7057 222.174 76.0002 222.534 76.2218C222.894 76.4434 223.296 76.5872 223.714 76.644C224.06 76.7261 224.417 76.7579 224.773 76.7383Z" fill="#9ABBFC"/>
<path d="M219.12 76.6384C218.794 76.6511 218.472 76.7147 218.166 76.8271C218.015 76.8714 217.874 76.9471 217.753 77.0494C217.633 77.1516 217.535 77.2781 217.466 77.4207C217.248 77.8241 217.106 78.2641 217.047 78.7189C217.02 79.1649 217.149 79.6062 217.411 79.9672C217.658 80.338 218.004 80.6319 218.409 80.816C218.805 81.0332 219.242 81.1639 219.691 81.1992C220.141 81.2346 220.593 81.1739 221.017 81.0213C221.429 80.9106 221.795 80.6728 222.066 80.3414C222.336 80.0099 222.496 79.6016 222.523 79.1738C222.557 78.7677 222.475 78.3601 222.286 77.9993C222.098 77.6385 221.81 77.3396 221.458 77.1377C220.761 76.701 219.934 76.5243 219.12 76.6384Z" fill="#9ABBFC"/>
<path d="M220.708 61.4872C220.969 61.4757 221.229 61.5265 221.467 61.6354C221.705 61.7444 221.913 61.9084 222.076 62.1141C222.272 62.3674 222.396 62.6696 222.433 62.9883C222.471 63.307 222.422 63.6301 222.291 63.9227C222.207 64.2185 222.036 64.4817 221.8 64.6772C221.601 65.0032 221.325 65.274 220.995 65.465C220.82 65.6594 220.588 65.7934 220.333 65.8478C220.083 65.985 219.813 66.0841 219.534 66.1419H219.446C219.275 66.2304 219.086 66.2766 218.894 66.2766C218.702 66.2766 218.513 66.2304 218.343 66.1419C218.227 66.092 218.056 66.1031 218.017 65.9311C217.966 65.913 217.92 65.883 217.882 65.8434C217.845 65.8039 217.817 65.7559 217.802 65.7036C217.73 65.7036 217.703 65.637 217.67 65.5815C217.45 65.2238 217.373 64.7956 217.455 64.3832C217.464 64.0554 217.563 63.7366 217.741 63.4623V63.4234L217.78 63.3679L217.824 63.3069V63.2181C217.824 63.2181 217.824 63.1682 217.824 63.1516C218.116 62.6428 218.537 62.2208 219.043 61.9285C219.55 61.6361 220.124 61.4839 220.708 61.4872Z" fill="#9ABBFC"/>
<path d="M176.85 38.3969C177.186 37.1764 177.551 35.7727 177.986 34.3858C178.141 33.8223 178.437 33.3083 178.846 32.8934C179.202 32.5057 179.659 32.2263 180.165 32.087C180.671 31.9477 181.206 31.9541 181.709 32.1056C182.71 32.4129 183.62 32.9658 184.356 33.7145C185.332 34.5658 186.222 35.5117 187.014 36.5384C187.645 37.3056 188.082 38.2156 188.288 39.1903C188.364 39.6666 188.326 40.1544 188.179 40.6134C188.031 41.0725 187.777 41.4898 187.438 41.831C186.688 42.6078 185.777 43.2083 184.769 43.5897C183.077 44.2947 181.288 44.7379 179.464 44.9046C178.981 44.9216 178.501 44.8227 178.063 44.6161C177.814 44.531 177.574 44.4214 177.347 44.2888C176.955 44.0371 176.638 43.6836 176.429 43.2657C176.22 42.8477 176.127 42.3808 176.161 41.9142C176.204 40.7125 176.437 39.5252 176.85 38.3969Z" fill="#90B5F4"/>
<path d="M191.089 42.752C192.291 43.0584 193.359 43.7544 194.128 44.7326C194.437 45.0762 194.612 45.5218 194.618 45.9857C194.624 46.4495 194.461 46.8995 194.161 47.2513C193.977 47.4778 193.745 47.6591 193.481 47.7812C193.217 47.9034 192.929 47.9631 192.639 47.9559C191.382 47.9573 190.169 47.4977 189.225 46.6632C188.739 46.2524 188.333 45.7538 188.028 45.1931C187.892 44.9716 187.823 44.7145 187.831 44.454C187.839 44.1935 187.923 43.9412 188.073 43.7284C188.266 43.3821 188.547 43.0931 188.887 42.8905C189.226 42.688 189.613 42.5789 190.008 42.5744C190.376 42.5704 190.742 42.6305 191.089 42.752Z" fill="#90B5F4"/>
<path d="M193.295 36.444C193.96 36.6004 194.559 36.9657 195.004 37.487C195.206 37.7389 195.346 38.0355 195.412 38.3523C195.477 38.6692 195.467 38.9972 195.382 39.3093C195.297 39.6215 195.139 39.9088 194.922 40.1475C194.705 40.3863 194.435 40.5697 194.133 40.6826C193.331 40.9444 192.476 41.0035 191.646 40.8546C190.942 40.7659 190.276 40.488 189.716 40.0502C189.514 39.9196 189.345 39.7437 189.223 39.5361C189.101 39.3286 189.028 39.0953 189.011 38.8546C188.994 38.614 189.033 38.3726 189.124 38.1497C189.216 37.9267 189.358 37.7284 189.539 37.5703C189.688 37.426 189.776 37.2208 189.931 37.0821C190.241 36.7941 190.606 36.574 191.005 36.4355C191.404 36.297 191.827 36.2433 192.247 36.2776C192.602 36.2862 192.954 36.3421 193.295 36.444Z" fill="#90B5F4"/>
<path d="M187.78 35.2956C187.466 35.213 187.166 35.082 186.892 34.9073C186.756 34.8294 186.636 34.7244 186.541 34.5984C186.447 34.4725 186.378 34.3284 186.341 34.175C186.211 33.7344 186.167 33.2732 186.208 32.8158C186.278 32.375 186.498 31.9726 186.832 31.6784C187.15 31.3678 187.55 31.1542 187.984 31.0626C188.417 30.9345 188.872 30.901 189.319 30.9641C189.766 31.0272 190.195 31.1857 190.576 31.4288C190.96 31.621 191.274 31.9308 191.472 32.3135C191.67 32.6963 191.743 33.1324 191.679 33.5591C191.623 33.962 191.454 34.3405 191.192 34.6508C190.931 34.9611 190.587 35.1905 190.201 35.3123C189.418 35.5965 188.559 35.5906 187.78 35.2956Z" fill="#90B5F4"/>
<path d="M186.071 50.4358C186.324 50.5033 186.589 50.5093 186.845 50.4533C187.101 50.3974 187.34 50.2811 187.543 50.114C187.789 49.911 187.975 49.6436 188.08 49.3411C188.185 49.0387 188.206 48.7129 188.139 48.3997C188.122 48.0929 188.012 47.7986 187.824 47.5565C187.698 47.1944 187.486 46.8687 187.207 46.6078C187.079 46.3836 186.887 46.2037 186.655 46.0918C186.441 45.9019 186.199 45.7466 185.938 45.6313L185.856 45.598C185.711 45.472 185.538 45.3826 185.352 45.3372C185.166 45.2919 184.972 45.2919 184.786 45.3373C184.664 45.3373 184.499 45.3373 184.422 45.476C184.369 45.4829 184.319 45.502 184.275 45.5318C184.231 45.5617 184.194 45.6015 184.168 45.648C184.091 45.648 184.052 45.6924 184.008 45.7367C183.72 46.0347 183.552 46.4305 183.539 46.8463C183.484 47.1681 183.512 47.4988 183.622 47.8061V47.8893L183.65 47.9503L183.677 48.0169V48.1057C183.677 48.1057 183.677 48.1556 183.677 48.1723C183.846 48.7265 184.155 49.2269 184.575 49.6239C184.995 50.0209 185.51 50.3008 186.071 50.4358Z" fill="#90B5F4"/>
<path d="M172.036 59.5953C171.418 60.7049 170.69 61.9532 170.029 63.2459C169.746 63.7548 169.596 64.3274 169.593 64.9102C169.575 65.437 169.704 65.9583 169.965 66.4152C170.226 66.8721 170.609 67.2463 171.071 67.4956C171.996 67.9886 173.029 68.2422 174.076 68.2334C175.364 68.3219 176.657 68.2829 177.936 68.1169C178.921 68.0177 179.867 67.6808 180.694 67.1349C181.081 66.8512 181.397 66.479 181.613 66.0488C181.83 65.6186 181.942 65.1428 181.94 64.6606C181.95 63.5778 181.724 62.506 181.278 61.5205C180.572 59.8199 179.612 58.2373 178.433 56.827C178.103 56.4735 177.695 56.2036 177.242 56.0392C177.003 55.9238 176.753 55.8309 176.497 55.7618C176.043 55.6632 175.571 55.6894 175.13 55.8378C174.69 55.9862 174.297 56.2512 173.994 56.6051C173.189 57.492 172.528 58.5011 172.036 59.5953Z" fill="#90B5F4"/>
<path d="M185.177 66.5857C186.243 67.2219 187.488 67.4853 188.718 67.3346C189.178 67.3126 189.614 67.1214 189.944 66.7972C190.273 66.473 190.473 66.0384 190.504 65.5759C190.533 65.285 190.495 64.9915 190.394 64.7175C190.292 64.4436 190.13 64.1964 189.92 63.9948C189.036 63.1054 187.859 62.5709 186.611 62.4913C185.978 62.439 185.34 62.5049 184.731 62.6855C184.478 62.7459 184.249 62.8796 184.072 63.07C183.894 63.2604 183.776 63.499 183.732 63.7562C183.626 64.1381 183.621 64.5414 183.718 64.9259C183.814 65.3104 184.01 65.6627 184.284 65.9476C184.542 66.2116 184.845 66.4275 185.177 66.5857Z" fill="#90B5F4"/>
<path d="M182.343 72.644C182.924 73.0079 183.607 73.1751 184.289 73.1211C184.61 73.0853 184.917 72.9734 185.185 72.7946C185.454 72.6158 185.676 72.3752 185.834 72.0928C185.992 71.8103 186.081 71.4941 186.093 71.1703C186.106 70.8465 186.041 70.5245 185.905 70.2307C185.515 69.4753 184.947 68.8276 184.251 68.3444C183.688 67.9142 183.022 67.6406 182.321 67.551C182.086 67.5003 181.842 67.5053 181.61 67.5658C181.377 67.6263 181.162 67.7405 180.981 67.8994C180.8 68.0583 180.658 68.2575 180.567 68.4812C180.476 68.7048 180.438 68.9467 180.457 69.1877C180.457 69.3929 180.38 69.6038 180.391 69.809C180.411 70.2358 180.519 70.6536 180.709 71.0358C180.899 71.4179 181.166 71.7559 181.494 72.0282C181.745 72.2743 182.031 72.4818 182.343 72.644Z" fill="#90B5F4"/>
<path d="M177.606 69.5261C177.326 69.361 177.023 69.2412 176.707 69.171C176.554 69.1277 176.395 69.1167 176.238 69.1387C176.082 69.1606 175.931 69.2151 175.797 69.2986C175.397 69.5207 175.041 69.8161 174.749 70.1696C174.492 70.5325 174.367 70.9733 174.396 71.4179C174.408 71.8635 174.542 72.2972 174.782 72.6717C175.002 73.0691 175.303 73.4153 175.665 73.6877C176.027 73.9602 176.442 74.1528 176.883 74.2529C177.29 74.3808 177.727 74.3767 178.132 74.2413C178.536 74.1059 178.889 73.846 179.139 73.4983C179.38 73.1722 179.525 72.7839 179.556 72.3784C179.587 71.9729 179.504 71.5668 179.315 71.2071C178.959 70.4624 178.354 69.8673 177.606 69.5261Z" fill="#90B5F4"/>
<path d="M187.008 57.5926C187.235 57.7238 187.428 57.9074 187.571 58.1282C187.714 58.3491 187.803 58.601 187.83 58.863C187.864 59.1855 187.81 59.5113 187.673 59.8048C187.536 60.0983 187.321 60.3483 187.052 60.5274C186.824 60.7318 186.539 60.8614 186.236 60.8991C185.894 61.0696 185.514 61.1498 185.133 61.1321C184.882 61.2016 184.616 61.1899 184.372 61.0988C184.087 61.0815 183.807 61.0217 183.539 60.9213L183.457 60.888C183.268 60.8762 183.085 60.8198 182.922 60.7234C182.759 60.627 182.621 60.4933 182.519 60.3332C182.447 60.2334 182.299 60.1446 182.359 59.9781C182.325 59.9361 182.302 59.8863 182.291 59.8331C182.281 59.78 182.283 59.725 182.299 59.673C182.238 59.6286 182.249 59.5621 182.249 59.501C182.257 59.0875 182.419 58.6919 182.701 58.3915C182.888 58.1229 183.141 57.907 183.435 57.7645H183.501L183.567 57.7368L183.622 57.6702C183.622 57.6702 183.622 57.6203 183.666 57.6148C184.171 57.313 184.747 57.1519 185.334 57.148C185.922 57.1441 186.499 57.2975 187.008 57.5926Z" fill="#90B5F4"/>
<path d="M140.779 49.2263C140.2 48.1168 139.516 46.8186 138.893 45.5037C138.632 44.9886 138.502 44.4171 138.512 43.8394C138.513 43.312 138.66 42.7954 138.937 42.3475C139.213 41.8996 139.609 41.5382 140.078 41.304C141.022 40.8461 142.064 40.6307 143.111 40.6771C144.403 40.6324 145.696 40.7161 146.972 40.9267C147.954 41.0551 148.889 41.4247 149.696 42.003C150.076 42.2979 150.38 42.6799 150.583 43.117C150.787 43.5542 150.883 44.0339 150.865 44.5162C150.837 45.5991 150.576 46.663 150.098 47.6341C149.334 49.3085 148.323 50.8571 147.098 52.2278C146.759 52.5726 146.341 52.8279 145.88 52.9712C145.639 53.0819 145.388 53.1674 145.13 53.2264C144.673 53.3108 144.202 53.2693 143.767 53.1062C143.332 52.943 142.949 52.6644 142.659 52.2999C141.875 51.3819 141.24 50.3444 140.779 49.2263Z" fill="#C3D5FC"/>
<path d="M154.141 42.6743C155.229 42.0773 156.483 41.857 157.709 42.0474C158.167 42.0875 158.596 42.2944 158.913 42.6294C159.231 42.9644 159.416 43.4044 159.435 43.8671C159.452 44.1586 159.403 44.4502 159.292 44.7201C159.181 44.99 159.011 45.2313 158.795 45.4261C157.875 46.2867 156.676 46.7816 155.42 46.8186C154.787 46.8481 154.153 46.7617 153.551 46.5634C153.3 46.4943 153.075 46.3521 152.904 46.1547C152.733 45.9572 152.624 45.7134 152.591 45.4538C152.498 45.068 152.507 44.6644 152.619 44.2836C152.73 43.9027 152.939 43.5582 153.225 43.2846C153.492 43.0283 153.802 42.8217 154.141 42.6743Z" fill="#C3D5FC"/>
<path d="M151.516 36.5273C152.108 36.1842 152.794 36.0403 153.473 36.1167C153.792 36.1641 154.094 36.2867 154.356 36.4743C154.618 36.6619 154.832 36.9093 154.98 37.1962C155.129 37.4831 155.207 37.8014 155.21 38.1248C155.213 38.4483 155.139 38.7678 154.996 39.0571C154.584 39.7977 153.999 40.4262 153.291 40.8879C152.714 41.2999 152.039 41.5524 151.334 41.6202C151.098 41.6619 150.855 41.6478 150.625 41.5792C150.395 41.5105 150.184 41.3891 150.009 41.2246C149.834 41.06 149.699 40.8568 149.615 40.6309C149.531 40.4049 149.5 40.1625 149.525 39.9226C149.525 39.7173 149.464 39.5009 149.481 39.2957C149.513 38.8726 149.632 38.4608 149.83 38.0865C150.029 37.7121 150.302 37.3833 150.633 37.1209C150.898 36.8817 151.195 36.6818 151.516 36.5273Z" fill="#C3D5FC"/>
<path d="M146.679 39.4732C146.392 39.6259 146.083 39.7344 145.764 39.7949C145.611 39.8337 145.451 39.84 145.295 39.8132C145.14 39.7865 144.991 39.7274 144.859 39.6396C144.469 39.4026 144.126 39.0962 143.845 38.7353C143.6 38.3639 143.489 37.9195 143.53 37.4759C143.558 37.0298 143.706 36.5998 143.961 36.2332C144.194 35.8442 144.506 35.5089 144.877 35.249C145.247 34.989 145.668 34.8103 146.111 34.7242C146.519 34.6142 146.95 34.6347 147.346 34.7829C147.741 34.931 148.081 35.1995 148.317 35.5508C148.549 35.8843 148.682 36.2773 148.701 36.684C148.72 37.0906 148.623 37.4942 148.422 37.8477C148.046 38.5764 147.43 39.1511 146.679 39.4732Z" fill="#C3D5FC"/>
<path d="M155.679 51.7229C155.909 51.5995 156.107 51.4231 156.257 51.2081C156.406 50.9931 156.503 50.7456 156.54 50.4857C156.582 50.1683 156.537 49.8452 156.41 49.5517C156.283 49.2582 156.078 49.0055 155.817 48.8214C155.597 48.6059 155.316 48.4661 155.012 48.4219C154.675 48.2333 154.294 48.1393 153.909 48.15C153.66 48.0694 153.392 48.0694 153.142 48.15C152.857 48.1584 152.575 48.2089 152.304 48.2999L152.222 48.3331C152.029 48.3411 151.841 48.3957 151.674 48.4923C151.507 48.5888 151.366 48.7246 151.262 48.8879C151.19 48.9878 151.036 49.0655 151.091 49.2374C151.056 49.2781 151.032 49.3265 151.019 49.3785C151.007 49.4306 151.007 49.4849 151.019 49.537C150.959 49.5814 150.97 49.648 150.964 49.7146C150.955 50.1351 151.105 50.5434 151.383 50.8574C151.56 51.1326 151.805 51.3564 152.095 51.5065H152.155L152.222 51.5398L152.277 51.612C152.286 51.6325 152.299 51.6513 152.315 51.6674C152.82 51.9784 153.398 52.1476 153.99 52.1574C154.581 52.1672 155.165 52.0171 155.679 51.7229Z" fill="#C3D5FC"/>
<path d="M138.545 73.1655C138.882 74.3694 139.257 75.7564 139.692 77.1267C139.853 77.6824 140.151 78.1882 140.558 78.5969C140.919 78.9762 141.378 79.2472 141.884 79.3794C142.389 79.5117 142.921 79.5001 143.42 79.3458C144.417 79.0299 145.324 78.476 146.062 77.7314C147.03 76.877 147.914 75.9314 148.703 74.9075C149.331 74.1435 149.764 73.2371 149.966 72.2667C150.042 71.795 150.004 71.3117 149.856 70.8578C149.707 70.4039 149.451 69.9927 149.111 69.6592C148.354 68.8994 147.441 68.3144 146.437 67.9449C144.74 67.2657 142.952 66.8467 141.131 66.7022C140.649 66.6862 140.17 66.789 139.736 67.0018C139.487 67.0868 139.247 67.1964 139.019 67.3291C138.629 67.5797 138.314 67.9315 138.106 68.3475C137.898 68.7635 137.806 69.2282 137.839 69.6925C137.894 70.88 138.132 72.0518 138.545 73.1655Z" fill="#C3D5FC"/>
<path d="M152.74 68.7105C153.943 68.4092 155.015 67.7217 155.795 66.7521C156.1 66.41 156.269 65.9664 156.269 65.5066C156.269 65.0468 156.1 64.6032 155.795 64.2611C155.61 64.0377 155.377 63.86 155.113 63.7417C154.849 63.6233 154.562 63.5676 154.273 63.5788C153.017 63.5883 151.807 64.0532 150.865 64.888C150.384 65.3011 149.981 65.7971 149.674 66.3527C149.538 66.5728 149.471 66.8283 149.48 67.087C149.488 67.3457 149.573 67.596 149.723 67.8062C149.922 68.1463 150.206 68.4278 150.546 68.6225C150.887 68.8173 151.273 68.9184 151.665 68.9158C152.032 68.9134 152.397 68.8439 152.74 68.7105Z" fill="#C3D5FC"/>
<path d="M154.99 74.9352C155.654 74.7717 156.251 74.4054 156.699 73.8867C156.9 73.6367 157.039 73.342 157.103 73.027C157.167 72.7121 157.155 72.3863 157.068 72.077C156.981 71.7677 156.822 71.4839 156.603 71.2495C156.384 71.0151 156.113 70.8369 155.812 70.7299C155.006 70.4796 154.153 70.4301 153.324 70.5857C152.625 70.6844 151.963 70.9656 151.405 71.4013C151.204 71.5298 151.036 71.704 150.914 71.9099C150.792 72.1158 150.72 72.3476 150.703 72.5867C150.687 72.8258 150.726 73.0655 150.818 73.2864C150.911 73.5074 151.053 73.7035 151.234 73.859C151.383 73.9977 151.477 74.2029 151.626 74.3361C151.939 74.6198 152.306 74.8353 152.706 74.9689C153.106 75.1026 153.528 75.1516 153.948 75.1128C154.301 75.1013 154.652 75.0415 154.99 74.9352Z" fill="#C3D5FC"/>
<path d="M149.464 76.1281C149.151 76.2152 148.852 76.3479 148.576 76.522C148.438 76.5973 148.317 76.7017 148.222 76.828C148.127 76.9543 148.059 77.0997 148.025 77.2543C147.9 77.69 147.857 78.1453 147.898 78.5969C147.97 79.0302 148.193 79.4235 148.527 79.7064C148.847 80.0123 149.246 80.2201 149.679 80.3056C150.114 80.4259 150.57 80.4535 151.016 80.3866C151.462 80.3197 151.89 80.1599 152.271 79.9173C152.647 79.7211 152.952 79.4108 153.143 79.0305C153.334 78.6501 153.402 78.2189 153.336 77.798C153.278 77.3978 153.108 77.0225 152.845 76.7167C152.582 76.4109 152.238 76.1873 151.852 76.0726C151.074 75.8136 150.23 75.8333 149.464 76.1281Z" fill="#C3D5FC"/>
<path d="M147.716 61.1598C147.967 61.0903 148.23 61.0811 148.485 61.1332C148.74 61.1852 148.979 61.297 149.183 61.4594C149.43 61.659 149.617 61.923 149.724 62.2225C149.831 62.522 149.853 62.8454 149.79 63.1571C149.773 63.4605 149.663 63.7512 149.475 63.9893C149.355 64.3514 149.144 64.6762 148.863 64.9324C148.736 65.1582 148.544 65.34 148.312 65.4539C148.097 65.642 147.858 65.7989 147.6 65.9199L147.518 65.9532C147.373 66.0792 147.2 66.1687 147.014 66.214C146.828 66.2594 146.634 66.2594 146.448 66.214C146.326 66.214 146.161 66.2472 146.084 66.0863C146.031 66.0808 145.98 66.0622 145.936 66.0322C145.891 66.0022 145.855 65.9618 145.83 65.9144C145.753 65.9144 145.714 65.87 145.67 65.8312C145.377 65.5361 145.209 65.1385 145.201 64.7216C145.139 64.4025 145.165 64.0721 145.279 63.7673V63.7285L145.312 63.6675L145.339 63.6009V63.5121C145.339 63.5121 145.339 63.4622 145.339 63.4456C145.503 62.8892 145.809 62.3856 146.226 61.9847C146.642 61.5837 147.156 61.2994 147.716 61.1598Z" fill="#C3D5FC"/>
<path d="M294.633 19.0847C293.375 19.007 291.93 18.9293 290.491 18.7907C289.902 18.7465 289.334 18.5558 288.837 18.2359C288.388 17.9631 288.024 17.57 287.785 17.1005C287.547 16.6311 287.443 16.104 287.486 15.5784C287.582 14.5292 287.932 13.5196 288.506 12.6381C289.137 11.5056 289.876 10.4373 290.712 9.44804C291.328 8.66704 292.125 8.04984 293.033 7.6505C293.482 7.47421 293.967 7.40842 294.447 7.4586C294.926 7.50878 295.387 7.67348 295.791 7.939C296.698 8.52331 297.467 9.29955 298.046 10.2136C299.077 11.7355 299.873 13.4059 300.406 15.1679C300.519 15.6401 300.519 16.1326 300.406 16.6048C300.372 16.8687 300.313 17.1287 300.23 17.3815C300.068 17.8209 299.791 18.2078 299.428 18.501C299.065 18.7942 298.629 18.9825 298.167 19.0459C296.998 19.243 295.806 19.2561 294.633 19.0847Z" fill="#3772FF"/>
<path d="M295.962 4.18866C296.013 2.94119 296.473 1.74573 297.269 0.787805C297.537 0.411035 297.933 0.146435 298.382 0.0441711C298.832 -0.058093 299.303 0.00909334 299.706 0.233017C299.964 0.366716 300.189 0.558321 300.362 0.79302C300.535 1.02772 300.652 1.29925 300.704 1.5867C300.968 2.82148 300.771 4.11065 300.153 5.20948C299.851 5.7719 299.449 6.27393 298.967 6.69076C298.78 6.87158 298.544 6.9924 298.289 7.03784C298.033 7.08328 297.77 7.05131 297.533 6.94597C297.157 6.82667 296.818 6.61019 296.551 6.31815C296.284 6.0261 296.098 5.6687 296.011 5.28161C295.931 4.92301 295.915 4.55309 295.962 4.18866Z" fill="#3772FF"/>
<path d="M289.366 3.27881C289.381 2.59092 289.615 1.92601 290.033 1.38141C290.237 1.13114 290.496 0.933137 290.79 0.803768C291.085 0.674399 291.406 0.617382 291.726 0.63744C292.047 0.657498 292.358 0.754071 292.634 0.919134C292.91 1.0842 293.144 1.313 293.314 1.58668C293.735 2.3224 293.968 3.15157 293.993 4.00003C294.048 4.71022 293.915 5.42242 293.607 6.06383C293.521 6.28926 293.385 6.49154 293.208 6.65461C293.031 6.81768 292.819 6.93706 292.588 7.00328C292.357 7.06951 292.115 7.08075 291.879 7.03613C291.643 6.99151 291.421 6.89227 291.23 6.74624C291.059 6.62973 290.838 6.58535 290.678 6.46329C290.335 6.21615 290.046 5.90033 289.83 5.53565C289.614 5.17098 289.474 4.7653 289.421 4.344C289.355 3.99311 289.336 3.63475 289.366 3.27881Z" fill="#3772FF"/>
<path d="M289.377 8.96539C289.362 9.29163 289.297 9.61357 289.184 9.91961C289.136 10.0708 289.057 10.2106 288.954 10.3307C288.851 10.4508 288.725 10.5487 288.583 10.6187C288.18 10.8337 287.74 10.971 287.287 11.0236C286.844 11.0461 286.407 10.9127 286.052 10.6464C285.684 10.3939 285.396 10.0419 285.219 9.63111C285.007 9.231 284.882 8.79032 284.852 8.33804C284.821 7.88576 284.886 7.43214 285.042 7.00697C285.158 6.59426 285.398 6.22808 285.731 5.95953C286.063 5.69099 286.47 5.53349 286.895 5.50904C287.301 5.48322 287.705 5.57381 288.062 5.77025C288.418 5.96668 288.712 6.26087 288.908 6.61862C289.334 7.32116 289.5 8.15203 289.377 8.96539Z" fill="#3772FF"/>
<path d="M304.454 7.53958C304.468 7.27751 304.421 7.01575 304.316 6.77567C304.21 6.53558 304.05 6.324 303.848 6.15817C303.599 5.95786 303.3 5.82973 302.984 5.78769C302.669 5.74564 302.347 5.79124 302.055 5.91958C301.757 5.99563 301.492 6.16698 301.3 6.40779C300.97 6.60154 300.695 6.87646 300.5 7.20669C300.307 7.38179 300.172 7.61225 300.114 7.86689C299.972 8.11554 299.87 8.38514 299.811 8.66579V8.75457C299.722 8.92596 299.676 9.11624 299.676 9.30936C299.676 9.50248 299.722 9.69276 299.811 9.86415C299.855 9.9751 299.844 10.1471 300.015 10.1859C300.015 10.3024 300.136 10.3523 300.235 10.4023C300.235 10.4744 300.302 10.5021 300.357 10.5354C300.71 10.7621 301.136 10.8454 301.548 10.7685C301.872 10.76 302.188 10.6642 302.463 10.4911H302.507L302.557 10.4467L302.618 10.4078H302.706C302.73 10.4133 302.754 10.4133 302.778 10.4078C303.283 10.1197 303.703 9.70301 303.998 9.19955C304.292 8.69609 304.449 8.12361 304.454 7.53958Z" fill="#3772FF"/>
<path d="M316.2 26.641C317.419 26.9516 318.814 27.3289 320.232 27.634C320.794 27.7782 321.384 27.7782 321.947 27.634C322.457 27.5125 322.923 27.2495 323.293 26.8749C323.662 26.5004 323.92 26.0291 324.037 25.5147C324.265 24.4885 324.239 23.4214 323.959 22.4079C323.714 21.1354 323.345 19.8904 322.857 18.6908C322.508 17.7601 321.94 16.9283 321.202 16.2664C320.828 15.9649 320.388 15.7573 319.918 15.6608C319.448 15.5644 318.962 15.5818 318.5 15.7116C317.459 15.9866 316.49 16.4864 315.66 17.1763C314.217 18.3104 312.953 19.6571 311.91 21.1707C311.655 21.5831 311.501 22.0512 311.463 22.5355C311.414 22.7971 311.39 23.0627 311.392 23.3288C311.414 23.7976 311.562 24.2515 311.82 24.6422C312.079 25.033 312.438 25.346 312.859 25.548C313.909 26.0863 315.036 26.4552 316.2 26.641Z" fill="#3772FF"/>
<path d="M319.46 12.05C319.789 10.8462 319.713 9.56677 319.244 8.41063C319.1 7.97134 318.801 7.60004 318.405 7.36621C318.008 7.13237 317.54 7.05199 317.088 7.14015C316.802 7.1913 316.531 7.30665 316.295 7.47761C316.059 7.64857 315.865 7.87076 315.726 8.12769C315.11 9.22737 314.914 10.5156 315.175 11.7504C315.29 12.3774 315.52 12.9774 315.853 13.5202C315.977 13.7501 316.165 13.938 316.395 14.0604C316.624 14.1828 316.885 14.2342 317.143 14.2081C317.537 14.2105 317.924 14.1093 318.266 13.9147C318.609 13.7201 318.895 13.4387 319.096 13.0986C319.276 12.7728 319.399 12.4181 319.46 12.05Z" fill="#3772FF"/>
<path d="M326.017 13.2095C326.207 12.5485 326.186 11.8438 325.956 11.1956C325.837 10.8948 325.649 10.6267 325.408 10.4133C325.166 10.2 324.877 10.0474 324.565 9.9683C324.254 9.8892 323.928 9.88579 323.614 9.95835C323.301 10.0309 323.009 10.1774 322.763 10.3856C322.14 10.9588 321.667 11.677 321.384 12.4772C321.119 13.138 321.031 13.8575 321.131 14.5632C321.144 14.8039 321.213 15.0381 321.332 15.2473C321.452 15.4564 321.618 15.6348 321.817 15.7683C322.017 15.9018 322.244 15.9867 322.482 16.0164C322.72 16.046 322.962 16.0195 323.188 15.939C323.381 15.878 323.607 15.9058 323.8 15.8392C324.202 15.7108 324.574 15.4995 324.891 15.2186C325.208 14.9378 325.464 14.5937 325.642 14.2081C325.813 13.8948 325.939 13.5586 326.017 13.2095Z" fill="#3772FF"/>
<path d="M324.274 18.6242C324.189 18.9385 324.154 19.2643 324.169 19.5896C324.169 19.7488 324.201 19.9065 324.262 20.0532C324.324 20.2 324.414 20.3328 324.528 20.444C324.844 20.7708 325.218 21.036 325.631 21.2262C326.047 21.3788 326.504 21.3788 326.921 21.2262C327.348 21.1013 327.73 20.8569 328.024 20.5216C328.347 20.2054 328.6 19.8238 328.765 19.402C328.93 18.9803 329.005 18.5279 328.983 18.075C329.001 17.6463 328.884 17.2228 328.65 16.8645C328.415 16.5061 328.075 16.2309 327.676 16.0777C327.3 15.9279 326.888 15.8885 326.49 15.9641C326.092 16.0397 325.723 16.2272 325.426 16.5049C324.807 17.0535 324.399 17.8037 324.274 18.6242Z" fill="#3772FF"/>
<path d="M310.349 12.6325C310.419 12.3814 310.546 12.1503 310.72 11.9575C310.894 11.7648 311.111 11.6159 311.353 11.5229C311.65 11.4092 311.973 11.3795 312.286 11.4372C312.599 11.4949 312.891 11.6378 313.129 11.8503C313.38 12.0179 313.573 12.2604 313.68 12.5437C313.934 12.8284 314.111 13.1743 314.193 13.5479C314.326 13.7735 314.386 14.0354 314.364 14.2969C314.423 14.5777 314.437 14.8659 314.408 15.1513V15.24C314.445 15.4295 314.436 15.625 314.382 15.8103C314.329 15.9956 314.232 16.1654 314.099 16.3052C314.022 16.3995 313.984 16.566 313.807 16.5549C313.775 16.5978 313.733 16.6326 313.685 16.6567C313.637 16.6807 313.585 16.6934 313.531 16.6936C313.531 16.7602 313.438 16.7657 313.377 16.7879C312.97 16.8941 312.538 16.8406 312.169 16.6381C311.861 16.5282 311.589 16.3365 311.381 16.0833H311.342L311.303 16.0223L311.259 15.9613L311.177 15.928C311.177 15.928 311.127 15.928 311.116 15.9002C310.712 15.4728 310.428 14.9449 310.293 14.3707C310.158 13.7965 310.178 13.1967 310.349 12.6325Z" fill="#3772FF"/>
</g>
<defs>
<clipPath id="clip0_41_384">
<rect width="329" height="113.521" fill="white"/>
</clipPath>
</defs>
</svg>
