<svg width="375" height="142" viewBox="0 0 375 142" fill="none" xmlns="http://www.w3.org/2000/svg">
<path d="M110.241 47.4073C38.9253 35.1358 -28.494 105.356 -53.2892 142L397.157 142C372.125 17.9216 311.299 1.06408 276.723 34.6245C221.937 87.8009 181.557 59.6788 110.241 47.4073Z" fill="#36D6AD"/>
<path d="M-71 142C-37.3494 92.2891 46.0096 -1.67871 110.241 20.1373C174.472 41.9533 213.672 66.4962 266.096 20.1373C310.964 -19.5393 391.607 -5.93961 419 142M-53.2892 142C-28.494 105.356 38.9253 35.1358 110.241 47.4073C181.557 59.6788 221.937 87.8009 276.723 34.6245C311.299 1.06408 372.125 17.9216 397.157 142L-53.2892 142Z" stroke="#36D6AD" stroke-width="2"/>
</svg>
