<svg width="23" height="24" viewBox="0 0 23 24" fill="none" xmlns="http://www.w3.org/2000/svg">
<path d="M16.7615 0.726562V2.3322C15.0626 1.31536 13.1302 0.777904 11.1618 0.774731C9.69587 0.751112 8.24066 1.03343 6.88507 1.60444C5.52947 2.17544 4.30197 3.02314 3.27757 4.09572C2.21975 5.13843 1.38301 6.39258 0.819405 7.78014C0.255796 9.16771 -0.0226321 10.659 0.00143749 12.1614C-0.0216748 13.6659 0.257126 15.1593 0.820614 16.5494C1.3841 17.9394 2.22031 19.1965 3.27757 20.243C4.29801 21.323 5.52413 22.1775 6.88019 22.7537C8.23625 23.33 9.69345 23.6158 11.1618 23.5935C13.2228 23.5927 15.2422 22.9992 16.9892 21.8808C17.2205 22.3748 17.5752 22.7976 18.0176 23.1064C18.464 23.4275 18.9974 23.5978 19.5431 23.5935H22.3378V0.726562H16.7615ZM13.1609 8.77346C13.297 7.80741 14.0506 7.16783 14.8435 7.37121C15.6364 7.57459 16.1675 8.49515 16.0315 9.45853C15.8954 10.4219 15.1418 11.0642 14.3489 10.8608C13.5561 10.6574 13.0249 9.73684 13.1609 8.77346ZM9.93975 5.5167C10.6515 5.02431 11.6249 5.35079 12.1142 6.24459C12.6036 7.13839 12.4256 8.26769 11.7139 8.76008C11.0021 9.25248 10.0313 8.92867 9.54201 8.0322C9.05268 7.13572 9.23062 6.02515 9.93975 5.5167ZM6.29989 7.12234C7.01164 6.62994 7.98506 6.95375 8.47438 7.85022C8.96371 8.7467 8.78578 9.87332 8.07403 10.3657C7.36228 10.8581 6.39147 10.5343 5.90215 9.63783C5.41282 8.74135 5.59076 7.63079 6.29989 7.13304V7.12234ZM7.27593 13.9918C6.87033 14.7143 5.90738 14.8481 5.12498 14.2915C4.34258 13.7349 4.03904 12.6859 4.44463 11.9767C4.85022 11.2675 5.81318 11.1204 6.59558 11.677C7.37798 12.2336 7.68413 13.2799 7.27593 14.0025V13.9918ZM16.0105 15.865C15.0267 16.6357 13.5822 15.7473 12.389 16.2664C11.1801 16.7401 10.7405 18.4073 9.51061 18.5491C8.28075 18.6909 7.33873 17.3235 8.46392 14.8347C9.1966 13.1595 8.99249 11.7252 10.3453 11.1257C11.7244 10.5905 12.5539 11.776 14.2521 12.4637C16.7458 13.4539 16.9944 15.1077 16.0105 15.8757V15.865Z" fill="#3772FF"/>
</svg>
